<svg version="1.2" xmlns="http://www.w3.org/2000/svg" viewBox="0 0 66 48" width="66" height="48"><style>.a{fill:#c21a21;stroke:#010202;stroke-width:2}.b{fill:#fff}</style><path class="a" d="m64.7 23.9l-0.2 0.4-7.8 15.3c-2.2 4.3-6.6 7-11.5 7h-24.2c-4.8 0-9.2-2.7-11.4-7l-7.8-15.3-0.3-0.4 0.3-0.5 7.7-15.2c2.2-4.3 6.7-7 11.5-7h24.2c4.9 0 9.3 2.7 11.5 7l7.8 15.2z"/><path class="b" d="m38.8 32.7c0.8 0.6 0.9 1.8 0.2 2.5-1.5 1.5-4.7 3.4-10.5 1.7 0 0-5.4-1.7-7.9-7.5-1.7-4.2-1.3-9.1 1.4-12.7 2.2-2.9 6.6-6.9 13.2-5.2 0 0 2.8 0.4 4.3 3.8l4.6-3.5c0.1-0.1 0.4 0 0.4 0.2l1.4 12.8c0 0.2-0.1 0.3-0.3 0.3l-11.6-1.1c-0.2-0.1-0.3-0.3-0.2-0.5l2.7-3.7c0 0-2.7-5.4-8.4-0.9 0 0-1.7 1.5-2.1 4.4-0.3 2.5 0.7 5.1 2.8 6.5 1.2 0.8 2.8 1.3 4.7 0.8 0 0 0.4-0.1 0.9-0.3 0.5-0.2 1.1-0.1 1.6 0.2z"/></svg>