<svg version="1.2" xmlns="http://www.w3.org/2000/svg" viewBox="0 0 47 34" width="47" height="34"><style>.a{fill:#c21a21;stroke:#010202;stroke-width:2}.b{fill:#fff}</style><path class="a" d="m45.2 17l-0.1 0.3-5.4 10.6c-1.5 2.9-4.6 4.8-7.9 4.8h-16.8c-3.3 0-6.4-1.9-7.9-4.8l-5.4-10.6-0.2-0.3 0.2-0.3 5.4-10.6c1.5-3 4.6-4.8 7.9-4.8h16.8c3.3 0 6.4 1.8 7.9 4.8l5.4 10.6z"/><path class="b" d="m20.8 26.6q-1.6 0-3.1 0c-1.2 0-2.2-0.9-2.2-2q0-3 0-5.9c0-0.3 0-0.3-0.3-0.3q-1.2 0-1.7-1.1c-0.3-0.7-0.2-1.5 0.4-2q4.1-4.1 8.2-8.2 0.5-0.5 1.3-0.5c0.6 0 1 0.2 1.4 0.6q4 4 8 7.9 0.4 0.5 0.6 1v1c-0.1 0.4-0.3 0.7-0.7 1q-0.5 0.4-1.2 0.3c-0.2 0-0.2 0.1-0.2 0.2 0 1.9 0 3.9 0 5.8 0 1.1-0.7 1.9-1.5 2.1q-0.3 0.1-0.6 0.1-1.6 0-3.2 0c0 0-5.2 0-5.2 0z"/></svg>