<svg version="1.2" xmlns="http://www.w3.org/2000/svg" viewBox="0 0 25 25" width="25" height="25"><style>.a{fill:#faea2f;stroke:#010202;stroke-width:.5}.b{fill:#fff;stroke:#050707;stroke-width:.5}.c{fill:#e63329;stroke:#010202;stroke-width:.4}</style><path class="a" d="m23.4 13.2l-11 10.2c-0.4 0.3-1 0.3-1.4-0.1l-10.2-10.9c-0.3-0.4-0.3-1.1 0.1-1.4l10.9-10.2c0.4-0.4 1.1-0.4 1.4 0l10.2 11c0.4 0.4 0.4 1 0 1.4z"/><path class="b" d="m12.2 16.8c-2.6 0-4.7-2.1-4.7-4.8 0-2.6 2.1-4.8 4.7-4.8 2.7 0 4.8 2.2 4.8 4.8 0 2.7-2.1 4.8-4.8 4.8z"/><path class="c" d="m12.2 14.7c-1.4 0-2.7-1.2-2.7-2.7 0-1.5 1.3-2.7 2.7-2.7 1.5 0 2.8 1.2 2.8 2.7 0 1.5-1.3 2.7-2.8 2.7z"/></svg>