<svg version="1.2" xmlns="http://www.w3.org/2000/svg" viewBox="0 0 54 50" width="54" height="50"><style>.a{fill:#fff;stroke:#010202;stroke-width:.8}.b{fill:#c11a22}</style><path class="a" d="m47.7 49.3h-41.2c-2.9 0-5.3-2.4-5.3-5.3v-38.1c0-2.9 2.4-5.3 5.3-5.3h41.2c3 0 5.3 2.4 5.3 5.3v38.1c0 2.9-2.3 5.3-5.3 5.3z"/><path class="b" d="m33.4 31.8c0.7 0.6 0.8 1.6 0.2 2.2-1.4 1.4-4.3 3.1-9.5 1.6 0 0-4.9-1.5-7.1-6.8-1.6-3.8-1.2-8.2 1.2-11.5 2-2.6 6-6.2 12-4.6 0 0 2.5 0.3 3.8 3.4l4.2-3.2c0.1-0.1 0.3 0 0.4 0.2l1.2 11.6c0 0.1-0.1 0.2-0.3 0.2l-10.4-1c-0.2 0-0.3-0.2-0.2-0.4l2.4-3.4c0 0-2.4-4.8-7.6-0.7 0 0-1.5 1.3-1.8 3.9-0.3 2.3 0.6 4.6 2.5 5.9 1.1 0.7 2.5 1.1 4.3 0.7 0 0 0.3-0.1 0.7-0.3 0.5-0.2 1.1-0.1 1.5 0.2z"/></svg>