<svg version="1.2" xmlns="http://www.w3.org/2000/svg" viewBox="0 0 160 56" width="160" height="56"><style>.a{fill:#fcd901;stroke:#010202;stroke-width:1.3}</style><path class="a" d="m21.6 7.1l0.2 31.1c0 0.8-0.8 1.3-1.5 1l-4.2-1.6c-0.7-0.3-1.4 0.2-1.4 1l0.3 15.1c0 1.2-1.7 1.5-2.1 0.4l-11.8-30.7c-0.3-0.9 0.5-1.8 1.4-1.4l5.6 2.3c0.8 0.3 1.6-0.3 1.5-1.1l-2.2-20.8c-0.1-0.8 0.7-1.4 1.4-1.1l12.2 4.8c0.4 0.2 0.6 0.6 0.6 1z"/><path class="a" d="m90.4 7.1l0.1 31.1c0 0.8-0.7 1.3-1.4 1l-4.2-1.6c-0.7-0.3-1.5 0.2-1.5 1l0.3 15.1c0.1 1.2-1.6 1.5-2 0.4l-11.8-30.7c-0.4-0.9 0.5-1.8 1.4-1.4l5.6 2.3c0.7 0.3 1.5-0.3 1.5-1.1l-2.3-20.8c0-0.8 0.8-1.4 1.5-1.1l12.1 4.8c0.4 0.2 0.7 0.6 0.7 1z"/><path class="a" d="m159.2 7.1l0.1 31.1c0 0.8-0.8 1.3-1.5 1l-4.1-1.6c-0.7-0.3-1.5 0.2-1.5 1l0.3 15.1c0 1.2-1.6 1.5-2.1 0.4l-11.8-30.7c-0.3-0.9 0.6-1.8 1.4-1.4l5.7 2.3c0.7 0.3 1.5-0.3 1.4-1.1l-2.2-20.8c-0.1-0.8 0.7-1.4 1.5-1.1l12.1 4.8c0.4 0.2 0.7 0.6 0.7 1z"/></svg>