<?xml version="1.0" encoding="utf-8"?>
<!-- Generator: Adobe Illustrator 27.1.1, SVG Export Plug-In . SVG Version: 6.00 Build 0)  -->
<svg version="1.1" id="Layer_1" xmlns="http://www.w3.org/2000/svg" xmlns:xlink="http://www.w3.org/1999/xlink" x="0px" y="0px"
	 viewBox="0 0 174.31 257.46" style="enable-background:new 0 0 174.31 257.46;" xml:space="preserve">
<style type="text/css">
	.st0{fill:#D4D7EE;stroke:#010202;stroke-miterlimit:10;}
	.st1{fill:#FFFFFF;stroke:#010202;stroke-width:0.75;stroke-miterlimit:10;}
	.st2{fill:#179552;}
	.st3{fill:#C11A22;}
	.st4{fill:#FFFFFF;stroke:#010202;stroke-width:1.4583;stroke-miterlimit:10;}
	.st5{fill:#37AB4D;stroke:#010202;stroke-width:1.1973;stroke-miterlimit:10;}
	.st6{fill:#F7BA16;stroke:#010202;stroke-width:1.1973;stroke-miterlimit:10;}
	.st7{fill:#C11A22;stroke:#010202;stroke-width:1.1973;stroke-miterlimit:10;}
	.st8{fill:#FFFFFF;stroke:#010202;stroke-width:1.1726;stroke-miterlimit:10;}
	.st9{fill:#C11A22;stroke:#010202;stroke-width:1.438;stroke-miterlimit:10;}
	.st10{fill:#37AB4D;stroke:#010202;stroke-width:1.438;stroke-miterlimit:10;}
	.st11{fill:#F7BA16;stroke:#010202;stroke-width:1.438;stroke-miterlimit:10;}
	.st12{fill:#191919;stroke:#191919;stroke-miterlimit:10;}
	.st13{fill:none;stroke:#010202;stroke-width:3;stroke-linecap:round;stroke-linejoin:round;stroke-miterlimit:10;}
	.st14{fill:#C21A21;stroke:#010202;stroke-width:2;stroke-miterlimit:10;}
	.st15{fill:#FFFFFF;}
	.st16{fill:none;stroke:#010202;stroke-width:0.8258;stroke-miterlimit:10;}
	.st17{fill:#F7BA16;stroke:#010202;stroke-width:0.75;stroke-miterlimit:10;}
	.st18{fill:#C11A22;stroke:#010202;stroke-width:0.75;stroke-miterlimit:10;}
	.st19{fill:#FAEA2F;stroke:#010202;stroke-width:0.4937;stroke-miterlimit:10;}
	.st20{fill:#FFFFFF;stroke:#050707;stroke-width:0.4937;stroke-miterlimit:10;}
	.st21{fill:#E63329;stroke:#010202;stroke-width:0.1545;stroke-miterlimit:10;}
	.st22{fill:#37AB4D;stroke:#010202;stroke-width:0.75;stroke-miterlimit:10;}
	.st23{fill:#FCD802;stroke:#010202;stroke-width:1.4349;stroke-miterlimit:10;}
	.st24{fill:#FFFFFF;stroke:#010202;stroke-width:1.4349;stroke-miterlimit:10;}
	.st25{fill:none;stroke:#010202;stroke-width:1.4349;stroke-linecap:round;stroke-linejoin:round;stroke-miterlimit:10;}
	.st26{fill:#010202;}
	.st27{fill:#02A96B;stroke:#010202;stroke-width:0.75;stroke-miterlimit:10;}
	.st28{fill:#F7BA16;stroke:#010202;stroke-width:3.158;stroke-miterlimit:10;}
	.st29{fill:#FFFFFF;stroke:#010202;stroke-width:2.3588;stroke-miterlimit:10;}
	.st30{fill:#C21920;stroke:#010202;stroke-width:2.3588;stroke-miterlimit:10;}
	.st31{fill:#C21A21;stroke:#010202;stroke-width:1.1973;stroke-miterlimit:10;}
	.st32{fill:#70B966;stroke:#010202;stroke-miterlimit:10;}
	.st33{fill:#02A96B;}
	.st34{fill:#FFFFFF;stroke:#010202;stroke-width:2;stroke-miterlimit:10;}
	.st35{fill:#C21920;stroke:#010202;stroke-width:1.4407;stroke-miterlimit:10;}
	.st36{fill:#F8AB16;stroke:#010202;stroke-width:1.4407;stroke-miterlimit:10;}
	.st37{fill:#8E1963;stroke:#010202;stroke-width:1.4407;stroke-miterlimit:10;}
	.st38{fill:#FCD900;stroke:#010202;stroke-width:1.4407;stroke-miterlimit:10;}
	.st39{fill:#FFFFFF;stroke:#010202;stroke-width:1.8498;stroke-miterlimit:10;}
	.st40{fill:#8E1963;}
	.st41{fill:#8E1963;stroke:#010202;stroke-width:1.8764;stroke-miterlimit:10;}
	.st42{fill:#8E1963;stroke:#010202;stroke-width:1.4015;stroke-miterlimit:10;}
	.st43{fill:none;stroke:#010202;stroke-width:1.4015;stroke-linecap:round;stroke-linejoin:round;stroke-miterlimit:10;}
	.st44{fill:#C21920;stroke:#010202;stroke-width:1.8125;stroke-miterlimit:10;}
	.st45{fill:#FFFFFF;stroke:#010202;stroke-width:1.8478;stroke-miterlimit:10;}
	.st46{fill:#C21920;}
	.st47{fill:#F8AB16;stroke:#010202;stroke-width:1.7687;stroke-miterlimit:10;}
	.st48{fill:#F8AB16;}
	.st49{fill:#FCD900;}
	.st50{fill:none;stroke:#010202;stroke-width:1.6344;stroke-miterlimit:10;}
	.st51{fill:#FCD900;stroke:#010202;stroke-width:1.6344;stroke-miterlimit:10;}
	.st52{fill:#FFFFFF;stroke:#010202;stroke-width:0.9824;stroke-miterlimit:10;}
	.st53{fill:#C21920;stroke:#010202;stroke-width:0.4912;stroke-miterlimit:10;}
	.st54{fill:#8E1963;stroke:#010202;stroke-width:0.4912;stroke-miterlimit:10;}
	.st55{fill:#F8AB16;stroke:#010202;stroke-width:0.4912;stroke-miterlimit:10;}
	.st56{fill:#FFFFFF;stroke:#010202;stroke-width:2.0587;stroke-miterlimit:10;}
	.st57{fill:#8E1963;stroke:#010202;stroke-width:2.0883;stroke-miterlimit:10;}
	.st58{fill:#8E1963;stroke:#010202;stroke-width:1.5598;stroke-miterlimit:10;}
	.st59{fill:none;stroke:#010202;stroke-width:1.5598;stroke-linecap:round;stroke-linejoin:round;stroke-miterlimit:10;}
	.st60{fill:#C21920;stroke:#010202;stroke-width:2.0171;stroke-miterlimit:10;}
	.st61{fill:#FFFFFF;stroke:#010202;stroke-width:2.0565;stroke-miterlimit:10;}
	.st62{fill:#F8AB16;stroke:#010202;stroke-width:1.9685;stroke-miterlimit:10;}
	.st63{fill:#C11A22;stroke:#010202;stroke-width:2.0446;stroke-miterlimit:10;}
	.st64{fill:none;stroke:#010202;stroke-width:1.1741;stroke-miterlimit:10;}
	.st65{fill:#F7BA16;stroke:#010202;stroke-width:2.0446;stroke-miterlimit:10;}
	.st66{fill:#37AB4D;stroke:#010202;stroke-width:2.0446;stroke-miterlimit:10;}
	.st67{fill:#FFFFFF;stroke:#010202;stroke-width:1.3431;stroke-miterlimit:10;}
	.st68{fill:#FFFFFF;stroke:#010202;stroke-width:0.6716;stroke-miterlimit:10;}
	.st69{fill:#C21920;stroke:#010202;stroke-width:0.3358;stroke-miterlimit:10;}
	.st70{fill:#C21920;stroke:#010202;stroke-width:1.3431;stroke-miterlimit:10;}
	.st71{fill:#FFFFFF;stroke:#010202;stroke-width:1.3076;stroke-miterlimit:10;}
	.st72{fill:#C21920;stroke:#010202;stroke-width:1.3863;stroke-miterlimit:10;}
	.st73{fill:#FFFFFF;stroke:#010202;stroke-width:1.4948;stroke-miterlimit:10;}
	.st74{fill:#FFFFFF;stroke:#010202;stroke-width:0.7474;stroke-miterlimit:10;}
	.st75{fill:#C21920;stroke:#010202;stroke-width:0.3737;stroke-miterlimit:10;}
	.st76{fill:#C21920;stroke:#010202;stroke-width:1.4662;stroke-miterlimit:10;}
	.st77{fill:#F8AB16;stroke:#010202;stroke-width:0.3791;stroke-miterlimit:10;}
	.st78{fill:#F8AB16;stroke:#010202;stroke-width:1.4308;stroke-miterlimit:10;}
	.st79{fill:none;stroke:#010202;stroke-width:1.3222;stroke-miterlimit:10;}
	.st80{fill:#FCD900;stroke:#010202;stroke-width:0.3791;stroke-miterlimit:10;}
	.st81{fill:#FCD900;stroke:#010202;stroke-width:1.3222;stroke-miterlimit:10;}
	.st82{fill:#8E1963;stroke:#010202;stroke-width:0.3791;stroke-miterlimit:10;}
	.st83{fill:#8E1963;stroke:#010202;stroke-width:1.5163;stroke-miterlimit:10;}
	.st84{fill:#8E1963;stroke:#010202;stroke-width:1.1325;stroke-miterlimit:10;}
	.st85{fill:none;stroke:#010202;stroke-width:1.1325;stroke-linecap:round;stroke-linejoin:round;stroke-miterlimit:10;}
	.st86{fill:#FFFFFF;stroke:#010202;stroke-width:1.4206;stroke-miterlimit:10;}
	.st87{fill:#FFFFFF;stroke:#010202;stroke-width:0.7103;stroke-miterlimit:10;}
	.st88{fill:#C21920;stroke:#010202;stroke-width:0.3551;stroke-miterlimit:10;}
	.st89{fill:#C21920;stroke:#010202;stroke-width:1.4206;stroke-miterlimit:10;}
	.st90{fill:#FFFFFF;stroke:#010202;stroke-width:1.383;stroke-miterlimit:10;}
	.st91{fill:#FAEA2F;stroke:#010202;stroke-width:0.3551;stroke-miterlimit:10;}
	.st92{fill:#F8AB16;stroke:#010202;stroke-width:1.4205;stroke-miterlimit:10;}
	.st93{fill:#8E1963;stroke:#010202;stroke-width:1.6044;stroke-miterlimit:10;}
	.st94{fill:none;stroke:#010202;stroke-width:1.6044;stroke-linecap:round;stroke-linejoin:round;stroke-miterlimit:10;}
	.st95{fill:#FCD900;stroke:#010202;stroke-width:1.6789;stroke-miterlimit:10;}
	.st96{fill:#37AB4D;stroke:#010202;stroke-width:2;stroke-miterlimit:10;}
	.st97{fill:#C21920;stroke:#010202;stroke-width:1.7323;stroke-miterlimit:10;}
	.st98{fill:none;stroke:#C21A21;stroke-width:3.8955;stroke-linecap:round;stroke-linejoin:round;stroke-miterlimit:10;}
	.st99{fill:#333333;}
	.st100{fill:#FCD901;stroke:#010202;stroke-width:1.3419;stroke-miterlimit:10;}
	.st101{fill:#8E1963;stroke:#010202;stroke-width:1.216;stroke-miterlimit:10;}
	.st102{fill:none;stroke:#010202;stroke-width:1.216;stroke-linecap:round;stroke-linejoin:round;stroke-miterlimit:10;}
	.st103{fill:#F8AB16;stroke:#010202;stroke-width:1.5252;stroke-miterlimit:10;}
	.st104{opacity:0.52;fill:#7A8084;}
	.st105{fill:#2856A2;stroke:#010202;stroke-width:0.8146;stroke-miterlimit:10;}
	.st106{fill:#FFFFFF;stroke:#010202;stroke-width:0.3123;stroke-miterlimit:10;}
	.st107{fill:#FFFFFF;stroke:#010202;stroke-width:0.0923;stroke-miterlimit:10;}
	.st108{fill:#F7BA16;stroke:#010202;stroke-width:0.0612;stroke-miterlimit:10;}
	.st109{fill:#E63329;stroke:#010202;stroke-width:0.0612;stroke-miterlimit:10;}
	.st110{fill:#37AB4D;stroke:#010202;stroke-width:0.0612;stroke-miterlimit:10;}
	.st111{fill:#FFFFFF;stroke:#010202;stroke-width:0.0764;stroke-miterlimit:10;}
	.st112{fill:#F7BA16;stroke:#010202;stroke-width:0.0506;stroke-miterlimit:10;}
	.st113{fill:#E63329;stroke:#010202;stroke-width:0.0506;stroke-miterlimit:10;}
	.st114{fill:#37AB4D;stroke:#010202;stroke-width:0.0506;stroke-miterlimit:10;}
	.st115{fill:#179552;stroke:#010202;stroke-width:0.8326;stroke-miterlimit:10;}
	.st116{fill:#F7BA16;stroke:#010202;stroke-width:0.8146;stroke-miterlimit:10;}
	.st117{fill:#FFFFFF;stroke:#010202;stroke-width:0.4197;stroke-miterlimit:10;}
	.st118{fill:#E73836;stroke:#010202;stroke-width:0.1809;stroke-miterlimit:10;}
	.st119{fill:#D4D7EE;stroke:#010202;stroke-width:1.001;stroke-miterlimit:10;}
	.st120{fill:#FFFFFF;stroke:#010202;stroke-width:1.1881;stroke-miterlimit:10;}
	.st121{fill:#FFFFFF;stroke:#191919;stroke-width:0.9977;stroke-miterlimit:10;}
	.st122{fill:#C11A21;}
	.st123{fill:#2957A2;}
	.st124{fill:#D4D7EE;stroke:#010202;stroke-width:0.8539;stroke-miterlimit:10;}
	.st125{fill:#F7BA16;stroke:#010202;stroke-width:2.0392;stroke-miterlimit:10;}
	.st126{fill:none;stroke:#010202;stroke-width:1.171;stroke-miterlimit:10;}
	.st127{fill:#F7BA16;stroke:#010202;stroke-width:0.748;stroke-miterlimit:10;}
	.st128{fill:none;stroke:#010202;stroke-width:0.4027;stroke-miterlimit:10;}
	.st129{fill:#C11A22;stroke:#010202;stroke-width:0.3652;stroke-miterlimit:10;}
	.st130{fill:#C11A22;stroke:#010202;stroke-width:0.7033;stroke-miterlimit:10;}
</style>
<g>
	<g>
		<g>
			<g>
				<g>
					<g>
						<path class="st86" d="M75.83,187.94v-26.32l21.32-0.23c16.67,22.46-3.86,36.86-3.86,36.86s-1.93,5.44-7.71,5.33
							c0,0-3.63,0.23-7.26-7.03c0,0-0.41-0.75-1.43-3.24C76.19,191.62,75.83,189.79,75.83,187.94z"/>
						<g>
							<polygon class="st87" points="75.97,173.63 102.6,173.63 101.53,168.83 76.08,168.83 							"/>
							<polygon class="st77" points="99.82,168.79 94.26,168.79 92.61,173.63 101.47,173.63 							"/>
							<polygon class="st77" points="89.29,168.79 83.73,168.79 82.08,173.63 90.94,173.63 							"/>
							<polygon class="st91" points="78.72,168.79 76.15,168.79 75.97,173.63 80.37,173.63 							"/>
						</g>
						<g>
							<polygon class="st87" points="76.03,187.93 101.92,187.93 103.19,183.13 75.87,183.13 							"/>
							<polygon class="st77" points="99.82,183.09 94.26,183.09 92.61,187.93 101.47,187.93 							"/>
							<polygon class="st77" points="89.29,183.09 83.73,183.09 82.08,187.93 90.94,187.93 							"/>
							<polygon class="st77" points="78.72,183.09 76.48,183.09 76.33,187.93 80.37,187.93 							"/>
						</g>
						<path class="st86" d="M84.96,160.27c0,0,3.84,7.35,3.29,13.81c-0.32,3.78-3.56,6.79-7.33,6.38c-1.93-0.21-3.81-1.31-4.57-4.44
							v-17.04C76.35,158.98,81.11,161.36,84.96,160.27z"/>
						<path class="st86" d="M104.71,95.55c0,0,26.43,6.12,26.32,34.23c-0.04,10.42-4.99,20.4-14,26.28
							c-4.88,3.19-11.37,5.54-19.75,5.2c0,0-19.9,0.97-29.68-1.29c0,0-18.72-4.83-20.74-21.74c0,0-5.9-26.57,14.84-38.33
							C61.71,99.9,79.58,90.23,104.71,95.55z"/>
						<g>
							<ellipse class="st26" cx="106.53" cy="122.79" rx="6.5" ry="9.87"/>
						</g>
					</g>
				</g>
			</g>
			<g>
				<path class="st90" d="M94.11,197.5c0,0-10.05,3.35-16.32-2.14l0.42,12.35c0,3.75,2.53,7.11,6.19,7.92
					c0.07,0.02,0.14,0.03,0.21,0.05c6.16,1.26,10.65-1.05,8.58-6.99C92.12,205.65,94.75,199.06,94.11,197.5z"/>
				<path class="st48" d="M78.89,207.72c0,0,7.26,0.87,13.39,0.01c0,0,3.29,6.96-3.57,7.55C88.71,215.28,79.14,216.61,78.89,207.72z
					"/>
			</g>
			<g>
				<path class="st90" d="M97.41,194.71c0,0-3.94,5.32-13.64,3.52l0.46,9.49c0,3.75,2.53,7.11,6.19,7.92
					c0.07,0.02,0.14,0.03,0.21,0.05c6.16,1.26,10.65-1.05,8.58-6.99C98.16,205.65,98.06,196.27,97.41,194.71z"/>
				<path class="st48" d="M84.92,207.72c0,0,7.26,0.87,13.39,0.01c0,0,3.29,6.96-3.57,7.55C94.74,215.28,85.17,216.61,84.92,207.72z
					"/>
			</g>
			<path class="st92" d="M52.75,125.01c2.68,1.55,7.77,3.25,12.23,4.28c12.9,2.98,25.27-2.63,32.23-12.37
				c3.88-5.4,6.07-12.06,5.78-19.23c-0.13-0.61-0.16-1.18-0.13-1.78c0.17-3.11,2.02-6.28-0.71-12.78c-0.87-2.09-2.07-3.54-3.74-5.53
				c-4.8-5.78-13.25-6.02-17.05,0.48c-6.96,11.92-17.4,18.68-30.71,21.93c-7.19,1.76-9.73,10.63-4.93,16.26
				c0.57,0.68,1.12,1.35,1.62,2.02C47.35,118.29,48.98,122.96,52.75,125.01z"/>
		</g>
		<ellipse class="st48" cx="114.22" cy="141.62" rx="4.67" ry="2.11"/>
		<path class="st48" d="M77.06,174.36L77.05,176c0,0,0.87,5.09,6.38,3.57c0,0,3.61-1.23,4.05-5.21L77.06,174.36z"/>
	</g>
	<path class="st78" d="M129.25,139.86c-1.68-0.06-5.6-0.39-4.95-4.45c0.02-0.1,0.1-0.17,0.2-0.17h5.83L129.25,139.86z"/>
</g>
</svg>
