<?xml version="1.0" encoding="utf-8"?>
<!-- Generator: Adobe Illustrator 27.1.1, SVG Export Plug-In . SVG Version: 6.00 Build 0)  -->
<svg version="1.1" id="Layer_1" xmlns="http://www.w3.org/2000/svg" xmlns:xlink="http://www.w3.org/1999/xlink" x="0px" y="0px"
	 viewBox="0 0 209.12 122.34" style="enable-background:new 0 0 209.12 122.34;" xml:space="preserve">
<style type="text/css">
	.st0{fill:#D4D7EE;stroke:#010202;stroke-miterlimit:10;}
	.st1{fill:#FFFFFF;stroke:#010202;stroke-width:0.75;stroke-miterlimit:10;}
	.st2{fill:#179552;}
	.st3{fill:#C11A22;}
	.st4{fill:#FFFFFF;stroke:#010202;stroke-width:1.4583;stroke-miterlimit:10;}
	.st5{fill:#37AB4D;stroke:#010202;stroke-width:1.1973;stroke-miterlimit:10;}
	.st6{fill:#F7BA16;stroke:#010202;stroke-width:1.1973;stroke-miterlimit:10;}
	.st7{fill:#C11A22;stroke:#010202;stroke-width:1.1973;stroke-miterlimit:10;}
	.st8{fill:#FFFFFF;stroke:#010202;stroke-width:1.1726;stroke-miterlimit:10;}
	.st9{fill:#C11A22;stroke:#010202;stroke-width:1.438;stroke-miterlimit:10;}
	.st10{fill:#37AB4D;stroke:#010202;stroke-width:1.438;stroke-miterlimit:10;}
	.st11{fill:#F7BA16;stroke:#010202;stroke-width:1.438;stroke-miterlimit:10;}
	.st12{fill:#191919;stroke:#191919;stroke-miterlimit:10;}
	.st13{fill:none;stroke:#010202;stroke-width:3;stroke-linecap:round;stroke-linejoin:round;stroke-miterlimit:10;}
	.st14{fill:#C21A21;stroke:#010202;stroke-width:2;stroke-miterlimit:10;}
	.st15{fill:#FFFFFF;}
	.st16{fill:none;stroke:#010202;stroke-width:0.8258;stroke-miterlimit:10;}
	.st17{fill:#F7BA16;stroke:#010202;stroke-width:0.75;stroke-miterlimit:10;}
	.st18{fill:#C11A22;stroke:#010202;stroke-width:0.75;stroke-miterlimit:10;}
	.st19{fill:#FAEA2F;stroke:#010202;stroke-width:0.4937;stroke-miterlimit:10;}
	.st20{fill:#FFFFFF;stroke:#050707;stroke-width:0.4937;stroke-miterlimit:10;}
	.st21{fill:#E63329;stroke:#010202;stroke-width:0.1545;stroke-miterlimit:10;}
	.st22{fill:#37AB4D;stroke:#010202;stroke-width:0.75;stroke-miterlimit:10;}
	.st23{fill:#FCD802;stroke:#010202;stroke-width:1.4349;stroke-miterlimit:10;}
	.st24{fill:#FFFFFF;stroke:#010202;stroke-width:1.4349;stroke-miterlimit:10;}
	.st25{fill:none;stroke:#010202;stroke-width:1.4349;stroke-linecap:round;stroke-linejoin:round;stroke-miterlimit:10;}
	.st26{fill:#010202;}
	.st27{fill:#02A96B;stroke:#010202;stroke-width:0.75;stroke-miterlimit:10;}
	.st28{fill:#F7BA16;stroke:#010202;stroke-width:3.158;stroke-miterlimit:10;}
	.st29{fill:#FFFFFF;stroke:#010202;stroke-width:2.3588;stroke-miterlimit:10;}
	.st30{fill:#C21920;stroke:#010202;stroke-width:2.3588;stroke-miterlimit:10;}
	.st31{fill:#C21A21;stroke:#010202;stroke-width:1.1973;stroke-miterlimit:10;}
	.st32{fill:#70B966;stroke:#010202;stroke-miterlimit:10;}
	.st33{fill:#02A96B;}
	.st34{fill:#FFFFFF;stroke:#010202;stroke-width:2;stroke-miterlimit:10;}
	.st35{fill:#C21920;stroke:#010202;stroke-width:1.4407;stroke-miterlimit:10;}
	.st36{fill:#F8AB16;stroke:#010202;stroke-width:1.4407;stroke-miterlimit:10;}
	.st37{fill:#8E1963;stroke:#010202;stroke-width:1.4407;stroke-miterlimit:10;}
	.st38{fill:#FCD900;stroke:#010202;stroke-width:1.4407;stroke-miterlimit:10;}
	.st39{fill:#FFFFFF;stroke:#010202;stroke-width:1.8498;stroke-miterlimit:10;}
	.st40{fill:#8E1963;}
	.st41{fill:#8E1963;stroke:#010202;stroke-width:1.8764;stroke-miterlimit:10;}
	.st42{fill:#8E1963;stroke:#010202;stroke-width:1.4015;stroke-miterlimit:10;}
	.st43{fill:none;stroke:#010202;stroke-width:1.4015;stroke-linecap:round;stroke-linejoin:round;stroke-miterlimit:10;}
	.st44{fill:#C21920;stroke:#010202;stroke-width:1.8125;stroke-miterlimit:10;}
	.st45{fill:#FFFFFF;stroke:#010202;stroke-width:1.8478;stroke-miterlimit:10;}
	.st46{fill:#C21920;}
	.st47{fill:#F8AB16;stroke:#010202;stroke-width:1.7687;stroke-miterlimit:10;}
	.st48{fill:#F8AB16;}
	.st49{fill:#FCD900;}
	.st50{fill:none;stroke:#010202;stroke-width:1.6344;stroke-miterlimit:10;}
	.st51{fill:#FCD900;stroke:#010202;stroke-width:1.6344;stroke-miterlimit:10;}
	.st52{fill:#FFFFFF;stroke:#010202;stroke-width:0.9824;stroke-miterlimit:10;}
	.st53{fill:#C21920;stroke:#010202;stroke-width:0.4912;stroke-miterlimit:10;}
	.st54{fill:#8E1963;stroke:#010202;stroke-width:0.4912;stroke-miterlimit:10;}
	.st55{fill:#F8AB16;stroke:#010202;stroke-width:0.4912;stroke-miterlimit:10;}
	.st56{fill:#FFFFFF;stroke:#010202;stroke-width:2.0587;stroke-miterlimit:10;}
	.st57{fill:#8E1963;stroke:#010202;stroke-width:2.0883;stroke-miterlimit:10;}
	.st58{fill:#8E1963;stroke:#010202;stroke-width:1.5598;stroke-miterlimit:10;}
	.st59{fill:none;stroke:#010202;stroke-width:1.5598;stroke-linecap:round;stroke-linejoin:round;stroke-miterlimit:10;}
	.st60{fill:#C21920;stroke:#010202;stroke-width:2.0171;stroke-miterlimit:10;}
	.st61{fill:#FFFFFF;stroke:#010202;stroke-width:2.0565;stroke-miterlimit:10;}
	.st62{fill:#F8AB16;stroke:#010202;stroke-width:1.9685;stroke-miterlimit:10;}
	.st63{fill:#C11A22;stroke:#010202;stroke-width:2.0446;stroke-miterlimit:10;}
	.st64{fill:none;stroke:#010202;stroke-width:1.1741;stroke-miterlimit:10;}
	.st65{fill:#F7BA16;stroke:#010202;stroke-width:2.0446;stroke-miterlimit:10;}
	.st66{fill:#37AB4D;stroke:#010202;stroke-width:2.0446;stroke-miterlimit:10;}
	.st67{fill:#FFFFFF;stroke:#010202;stroke-width:1.3431;stroke-miterlimit:10;}
	.st68{fill:#FFFFFF;stroke:#010202;stroke-width:0.6716;stroke-miterlimit:10;}
	.st69{fill:#C21920;stroke:#010202;stroke-width:0.3358;stroke-miterlimit:10;}
	.st70{fill:#C21920;stroke:#010202;stroke-width:1.3431;stroke-miterlimit:10;}
	.st71{fill:#FFFFFF;stroke:#010202;stroke-width:1.3076;stroke-miterlimit:10;}
	.st72{fill:#C21920;stroke:#010202;stroke-width:1.3863;stroke-miterlimit:10;}
	.st73{fill:#FFFFFF;stroke:#010202;stroke-width:1.4948;stroke-miterlimit:10;}
	.st74{fill:#FFFFFF;stroke:#010202;stroke-width:0.7474;stroke-miterlimit:10;}
	.st75{fill:#C21920;stroke:#010202;stroke-width:0.3737;stroke-miterlimit:10;}
	.st76{fill:#C21920;stroke:#010202;stroke-width:1.4662;stroke-miterlimit:10;}
	.st77{fill:#F8AB16;stroke:#010202;stroke-width:0.3791;stroke-miterlimit:10;}
	.st78{fill:#F8AB16;stroke:#010202;stroke-width:1.4308;stroke-miterlimit:10;}
	.st79{fill:none;stroke:#010202;stroke-width:1.3222;stroke-miterlimit:10;}
	.st80{fill:#FCD900;stroke:#010202;stroke-width:0.3791;stroke-miterlimit:10;}
	.st81{fill:#FCD900;stroke:#010202;stroke-width:1.3222;stroke-miterlimit:10;}
	.st82{fill:#8E1963;stroke:#010202;stroke-width:0.3791;stroke-miterlimit:10;}
	.st83{fill:#8E1963;stroke:#010202;stroke-width:1.5163;stroke-miterlimit:10;}
	.st84{fill:#8E1963;stroke:#010202;stroke-width:1.1325;stroke-miterlimit:10;}
	.st85{fill:none;stroke:#010202;stroke-width:1.1325;stroke-linecap:round;stroke-linejoin:round;stroke-miterlimit:10;}
	.st86{fill:#FFFFFF;stroke:#010202;stroke-width:1.4206;stroke-miterlimit:10;}
	.st87{fill:#FFFFFF;stroke:#010202;stroke-width:0.7103;stroke-miterlimit:10;}
	.st88{fill:#C21920;stroke:#010202;stroke-width:0.3551;stroke-miterlimit:10;}
	.st89{fill:#C21920;stroke:#010202;stroke-width:1.4206;stroke-miterlimit:10;}
	.st90{fill:#FFFFFF;stroke:#010202;stroke-width:1.383;stroke-miterlimit:10;}
	.st91{fill:#FAEA2F;stroke:#010202;stroke-width:0.3551;stroke-miterlimit:10;}
	.st92{fill:#F8AB16;stroke:#010202;stroke-width:1.4205;stroke-miterlimit:10;}
	.st93{fill:#8E1963;stroke:#010202;stroke-width:1.6044;stroke-miterlimit:10;}
	.st94{fill:none;stroke:#010202;stroke-width:1.6044;stroke-linecap:round;stroke-linejoin:round;stroke-miterlimit:10;}
	.st95{fill:#FCD900;stroke:#010202;stroke-width:1.6789;stroke-miterlimit:10;}
	.st96{fill:#37AB4D;stroke:#010202;stroke-width:2;stroke-miterlimit:10;}
	.st97{fill:#C21920;stroke:#010202;stroke-width:1.7323;stroke-miterlimit:10;}
	.st98{fill:none;stroke:#C21A21;stroke-width:3.8955;stroke-linecap:round;stroke-linejoin:round;stroke-miterlimit:10;}
	.st99{fill:#333333;}
	.st100{fill:#FCD901;stroke:#010202;stroke-width:1.3419;stroke-miterlimit:10;}
	.st101{fill:#8E1963;stroke:#010202;stroke-width:1.216;stroke-miterlimit:10;}
	.st102{fill:none;stroke:#010202;stroke-width:1.216;stroke-linecap:round;stroke-linejoin:round;stroke-miterlimit:10;}
	.st103{fill:#F8AB16;stroke:#010202;stroke-width:1.5252;stroke-miterlimit:10;}
	.st104{opacity:0.52;fill:#7A8084;}
	.st105{fill:#2856A2;stroke:#010202;stroke-width:0.8146;stroke-miterlimit:10;}
	.st106{fill:#FFFFFF;stroke:#010202;stroke-width:0.3123;stroke-miterlimit:10;}
	.st107{fill:#FFFFFF;stroke:#010202;stroke-width:0.0923;stroke-miterlimit:10;}
	.st108{fill:#F7BA16;stroke:#010202;stroke-width:0.0612;stroke-miterlimit:10;}
	.st109{fill:#E63329;stroke:#010202;stroke-width:0.0612;stroke-miterlimit:10;}
	.st110{fill:#37AB4D;stroke:#010202;stroke-width:0.0612;stroke-miterlimit:10;}
	.st111{fill:#FFFFFF;stroke:#010202;stroke-width:0.0764;stroke-miterlimit:10;}
	.st112{fill:#F7BA16;stroke:#010202;stroke-width:0.0506;stroke-miterlimit:10;}
	.st113{fill:#E63329;stroke:#010202;stroke-width:0.0506;stroke-miterlimit:10;}
	.st114{fill:#37AB4D;stroke:#010202;stroke-width:0.0506;stroke-miterlimit:10;}
	.st115{fill:#179552;stroke:#010202;stroke-width:0.8326;stroke-miterlimit:10;}
	.st116{fill:#F7BA16;stroke:#010202;stroke-width:0.8146;stroke-miterlimit:10;}
	.st117{fill:#FFFFFF;stroke:#010202;stroke-width:0.4197;stroke-miterlimit:10;}
	.st118{fill:#E73836;stroke:#010202;stroke-width:0.1809;stroke-miterlimit:10;}
	.st119{fill:#D4D7EE;stroke:#010202;stroke-width:1.001;stroke-miterlimit:10;}
	.st120{fill:#FFFFFF;stroke:#010202;stroke-width:1.1881;stroke-miterlimit:10;}
	.st121{fill:#FFFFFF;stroke:#191919;stroke-width:0.9977;stroke-miterlimit:10;}
	.st122{fill:#C11A21;}
	.st123{fill:#2957A2;}
	.st124{fill:#D4D7EE;stroke:#010202;stroke-width:0.8539;stroke-miterlimit:10;}
	.st125{fill:#F7BA16;stroke:#010202;stroke-width:2.0392;stroke-miterlimit:10;}
	.st126{fill:none;stroke:#010202;stroke-width:1.171;stroke-miterlimit:10;}
	.st127{fill:#F7BA16;stroke:#010202;stroke-width:0.748;stroke-miterlimit:10;}
	.st128{fill:none;stroke:#010202;stroke-width:0.4027;stroke-miterlimit:10;}
	.st129{fill:#C11A22;stroke:#010202;stroke-width:0.3652;stroke-miterlimit:10;}
	.st130{fill:#C11A22;stroke:#010202;stroke-width:0.7033;stroke-miterlimit:10;}
</style>
<g>
	<g>
		<path class="st26" d="M57.43,64.11c0.48,0,0.9,0.08,1.26,0.25c0.35,0.17,0.65,0.38,0.88,0.63c0.23,0.25,0.4,0.53,0.52,0.84
			c0.11,0.31,0.17,0.6,0.17,0.88c0,0.27-0.06,0.55-0.17,0.86c-0.11,0.31-0.29,0.59-0.52,0.85c-0.23,0.26-0.52,0.47-0.88,0.64
			c-0.36,0.17-0.77,0.26-1.26,0.26c-0.48,0-0.9-0.09-1.26-0.26c-0.36-0.17-0.65-0.39-0.88-0.64c-0.23-0.26-0.4-0.54-0.51-0.85
			s-0.16-0.59-0.16-0.86c0-0.28,0.05-0.57,0.16-0.87s0.28-0.58,0.51-0.84c0.23-0.26,0.52-0.47,0.88-0.64
			C56.53,64.19,56.95,64.11,57.43,64.11z M54.9,45.55h5.08l-0.34,15.97h-4.4L54.9,45.55z"/>
		<path class="st26" d="M68.21,64.11c0.48,0,0.9,0.08,1.26,0.25c0.35,0.17,0.65,0.38,0.88,0.63c0.23,0.25,0.4,0.53,0.52,0.84
			c0.11,0.31,0.17,0.6,0.17,0.88c0,0.27-0.06,0.55-0.17,0.86c-0.11,0.31-0.29,0.59-0.52,0.85c-0.23,0.26-0.52,0.47-0.88,0.64
			c-0.36,0.17-0.77,0.26-1.26,0.26c-0.48,0-0.9-0.09-1.26-0.26c-0.36-0.17-0.65-0.39-0.88-0.64c-0.23-0.26-0.4-0.54-0.51-0.85
			s-0.16-0.59-0.16-0.86c0-0.28,0.05-0.57,0.16-0.87s0.28-0.58,0.51-0.84c0.23-0.26,0.52-0.47,0.88-0.64
			C67.31,64.19,67.73,64.11,68.21,64.11z M65.68,45.55h5.08l-0.34,15.97h-4.4L65.68,45.55z"/>
		<path class="st26" d="M78.99,64.11c0.48,0,0.9,0.08,1.26,0.25c0.35,0.17,0.65,0.38,0.88,0.63c0.23,0.25,0.4,0.53,0.52,0.84
			c0.11,0.31,0.17,0.6,0.17,0.88c0,0.27-0.06,0.55-0.17,0.86c-0.11,0.31-0.29,0.59-0.52,0.85c-0.23,0.26-0.52,0.47-0.88,0.64
			c-0.36,0.17-0.77,0.26-1.26,0.26c-0.48,0-0.9-0.09-1.26-0.26c-0.36-0.17-0.65-0.39-0.88-0.64c-0.23-0.26-0.4-0.54-0.51-0.85
			s-0.16-0.59-0.16-0.86c0-0.28,0.05-0.57,0.16-0.87s0.28-0.58,0.51-0.84c0.23-0.26,0.52-0.47,0.88-0.64
			C78.09,64.19,78.51,64.11,78.99,64.11z M76.46,45.55h5.08L81.2,61.52h-4.4L76.46,45.55z"/>
		<path class="st26" d="M87.53,66.98c0.39-0.38,0.82-0.69,1.29-0.95s0.97-0.46,1.51-0.62c0.53-0.16,1.08-0.27,1.65-0.34
			c0.57-0.07,1.15-0.1,1.74-0.1c0.2,0,0.41,0,0.62,0.02c0.21,0.01,0.42,0.02,0.64,0.02c0.01,0,0.03,0,0.06,0s0.08,0,0.13-0.02
			s0.11-0.02,0.16-0.03s0.11-0.02,0.18-0.03c0.03-0.01,0.06-0.02,0.1-0.02c0.03,0,0.06-0.01,0.1-0.02
			c-0.32-0.71-0.71-1.37-1.17-1.97c-0.46-0.61-0.96-1.18-1.51-1.71c-0.55-0.53-1.13-1.03-1.75-1.49c-0.62-0.46-1.25-0.9-1.89-1.3
			l-0.14-0.1l-0.5-2.71l0.11-0.11c1.14-1.2,2.48-2.14,4.02-2.81c1.54-0.67,3.29-1.05,5.26-1.14h0.52c0.78,0,1.56,0.05,2.32,0.15
			s1.5,0.26,2.22,0.47c0.71,0.21,1.4,0.48,2.05,0.81c0.65,0.33,1.25,0.72,1.81,1.18c0.29,0.24,0.58,0.5,0.85,0.79
			c0.28,0.29,0.53,0.6,0.75,0.94c0.22,0.33,0.4,0.68,0.53,1.03c0.13,0.35,0.2,0.71,0.2,1.08c0,0.43-0.09,0.86-0.27,1.29
			c-0.18,0.43-0.4,0.85-0.68,1.26c-0.27,0.41-0.58,0.8-0.9,1.17c-0.33,0.37-0.64,0.71-0.93,1.02c-0.78,0.86-1.66,1.65-2.63,2.38
			h8.51v3.87H98.57l-0.85-0.61c-0.45,0.14-0.92,0.26-1.39,0.37c-0.48,0.11-0.96,0.19-1.44,0.24l-0.05,0.02h-0.06
			c-0.89,0-1.77,0.05-2.63,0.15c-0.68,0.09-1.18,0.31-1.5,0.67c-0.32,0.36-0.48,0.82-0.48,1.38c0,0.27,0.05,0.53,0.16,0.78
			c0.11,0.25,0.26,0.48,0.47,0.68c0.2,0.2,0.45,0.36,0.72,0.49s0.59,0.2,0.92,0.23c0.4,0.03,0.8,0.06,1.2,0.09
			c0.4,0.03,0.81,0.05,1.22,0.07c0.5,0.03,0.9,0.16,1.19,0.37s0.51,0.49,0.65,0.81c0.15,0.33,0.23,0.69,0.27,1.09
			c0.03,0.4,0.05,0.79,0.05,1.19v0.39h-2.59c-0.66,0-1.3-0.04-1.95-0.1c-0.64-0.07-1.27-0.19-1.88-0.36
			c-0.61-0.17-1.18-0.4-1.72-0.69c-0.54-0.28-1.03-0.64-1.47-1.07c-0.59-0.58-1.02-1.19-1.3-1.83c-0.27-0.64-0.41-1.32-0.41-2.04
			c0-0.77,0.14-1.53,0.44-2.26C86.42,68.28,86.89,67.6,87.53,66.98z M99.88,62.95c0.58-0.44,1.14-0.89,1.67-1.36
			c0.53-0.47,1.06-0.94,1.59-1.43c0.12-0.12,0.25-0.26,0.39-0.42c0.15-0.16,0.29-0.33,0.43-0.52c0.14-0.18,0.26-0.37,0.35-0.56
			c0.09-0.19,0.14-0.36,0.14-0.51c0-0.13-0.07-0.28-0.2-0.45c-0.13-0.17-0.25-0.29-0.35-0.37c-0.61-0.48-1.33-0.84-2.17-1.07
			c-0.83-0.23-1.71-0.35-2.62-0.35c-0.83,0-1.6,0.08-2.3,0.25c-0.71,0.17-1.38,0.42-2.03,0.77c1.22,0.81,2.25,1.73,3.08,2.77
			C98.67,60.75,99.35,61.83,99.88,62.95z"/>
		<path class="st26" d="M111.52,68.99v-3.92h1.22c0.67,0,1.21-0.1,1.64-0.31c0.43-0.21,0.77-0.49,1.02-0.85
			c0.25-0.35,0.42-0.76,0.52-1.22c0.1-0.46,0.15-0.93,0.15-1.43v-4.79c0-0.39,0.08-0.71,0.25-0.98c0.17-0.27,0.39-0.48,0.68-0.64
			c0.29-0.16,0.61-0.28,0.98-0.35c0.37-0.08,0.77-0.11,1.18-0.11h1.98v6.88c0,0.7-0.08,1.4-0.23,2.09s-0.38,1.38-0.69,2.05
			c-0.53,1.1-1.3,1.96-2.33,2.61c-1.03,0.64-2.36,0.97-3.99,0.97H111.52z M113.6,51.28v-0.9h1.53c-0.17-0.3-0.3-0.61-0.39-0.93
			c-0.09-0.32-0.14-0.66-0.14-1c0-0.44,0.09-0.87,0.26-1.29s0.43-0.79,0.77-1.11s0.77-0.58,1.27-0.78c0.5-0.2,1.1-0.3,1.77-0.3
			c0.69,0,1.32,0.08,1.89,0.25c0.57,0.17,1.12,0.41,1.65,0.72l0.24,0.16l-0.06,0.21c-0.03,0.11-0.08,0.24-0.14,0.39
			c-0.06,0.16-0.14,0.3-0.25,0.44c-0.1,0.15-0.24,0.3-0.43,0.44c-0.19,0.14-0.44,0.22-0.76,0.22c-0.14,0-0.29-0.02-0.44-0.05
			c-0.19-0.06-0.41-0.11-0.64-0.15c-0.17-0.04-0.37-0.06-0.58-0.06c-0.38,0-0.67,0.09-0.89,0.28c-0.22,0.19-0.33,0.44-0.33,0.75
			c0,0.26,0.06,0.5,0.18,0.72c0.12,0.22,0.28,0.41,0.49,0.57c0.21,0.16,0.46,0.29,0.74,0.38c0.28,0.09,0.6,0.14,0.94,0.14h0.73
			c0.24,0,0.44,0.03,0.6,0.1c0.17,0.06,0.31,0.14,0.42,0.24c0.11,0.1,0.2,0.2,0.27,0.32c0.06,0.12,0.11,0.23,0.14,0.34
			c0.04,0.2,0.06,0.43,0.06,0.68v0.9h-7.46c-0.55,0-0.93-0.16-1.14-0.48C113.71,52.15,113.6,51.76,113.6,51.28z"/>
		<path class="st26" d="M127.53,45.55h1.97V66.9c0,0.39-0.08,0.71-0.25,0.98c-0.17,0.27-0.39,0.49-0.68,0.65
			c-0.28,0.17-0.61,0.29-0.98,0.36c-0.37,0.07-0.77,0.1-1.18,0.1h-1.97v-0.37c0-3.52,0-7.02-0.01-10.5
			c-0.01-3.48-0.01-6.97-0.01-10.48c0-0.39,0.08-0.71,0.25-0.98c0.17-0.27,0.39-0.49,0.68-0.65c0.29-0.17,0.62-0.29,0.99-0.36
			C126.71,45.58,127.11,45.55,127.53,45.55z"/>
		<path class="st26" d="M130.43,75.53c0-0.38,0.03-0.74,0.1-1.09c0.06-0.35,0.18-0.66,0.35-0.93c0.17-0.27,0.39-0.49,0.68-0.66
			c0.28-0.17,0.65-0.27,1.09-0.29h0.24c0.31,0,0.6-0.09,0.86-0.26c0.26-0.17,0.52-0.39,0.77-0.66c0.18-0.19,0.33-0.41,0.44-0.66
			c0.11-0.25,0.2-0.51,0.27-0.78s0.11-0.55,0.13-0.84c0.02-0.29,0.03-0.56,0.03-0.81V57.1l0.02-0.61c0-0.39,0.08-0.71,0.25-0.98
			c0.17-0.27,0.39-0.48,0.68-0.64c0.28-0.16,0.61-0.28,0.99-0.35s0.77-0.11,1.19-0.11h1.98v3.17l-0.02,11.05
			c0,1-0.12,1.96-0.35,2.89c-0.23,0.93-0.65,1.76-1.25,2.48s-1.42,1.3-2.46,1.74c-1.04,0.44-2.36,0.65-3.97,0.65h-2.01V75.53z"/>
	</g>
</g>
</svg>
