<?xml version="1.0" encoding="utf-8"?>
<!-- Generator: Adobe Illustrator 27.1.1, SVG Export Plug-In . SVG Version: 6.00 Build 0)  -->
<svg version="1.1" id="Layer_1" xmlns="http://www.w3.org/2000/svg" xmlns:xlink="http://www.w3.org/1999/xlink" x="0px" y="0px"
	 viewBox="0 0 428.06 122.34" style="enable-background:new 0 0 428.06 122.34;" xml:space="preserve">
<style type="text/css">
	.st0{fill:#D4D7EE;stroke:#010202;stroke-miterlimit:10;}
	.st1{fill:#FFFFFF;stroke:#010202;stroke-width:0.75;stroke-miterlimit:10;}
	.st2{fill:#179552;}
	.st3{fill:#C11A22;}
	.st4{fill:#FFFFFF;stroke:#010202;stroke-width:1.4583;stroke-miterlimit:10;}
	.st5{fill:#37AB4D;stroke:#010202;stroke-width:1.1973;stroke-miterlimit:10;}
	.st6{fill:#F7BA16;stroke:#010202;stroke-width:1.1973;stroke-miterlimit:10;}
	.st7{fill:#C11A22;stroke:#010202;stroke-width:1.1973;stroke-miterlimit:10;}
	.st8{fill:#FFFFFF;stroke:#010202;stroke-width:1.1726;stroke-miterlimit:10;}
	.st9{fill:#C11A22;stroke:#010202;stroke-width:1.438;stroke-miterlimit:10;}
	.st10{fill:#37AB4D;stroke:#010202;stroke-width:1.438;stroke-miterlimit:10;}
	.st11{fill:#F7BA16;stroke:#010202;stroke-width:1.438;stroke-miterlimit:10;}
	.st12{fill:#191919;stroke:#191919;stroke-miterlimit:10;}
	.st13{fill:none;stroke:#010202;stroke-width:3;stroke-linecap:round;stroke-linejoin:round;stroke-miterlimit:10;}
	.st14{fill:#C21A21;stroke:#010202;stroke-width:2;stroke-miterlimit:10;}
	.st15{fill:#FFFFFF;}
	.st16{fill:none;stroke:#010202;stroke-width:0.8258;stroke-miterlimit:10;}
	.st17{fill:#F7BA16;stroke:#010202;stroke-width:0.75;stroke-miterlimit:10;}
	.st18{fill:#C11A22;stroke:#010202;stroke-width:0.75;stroke-miterlimit:10;}
	.st19{fill:#FAEA2F;stroke:#010202;stroke-width:0.4937;stroke-miterlimit:10;}
	.st20{fill:#FFFFFF;stroke:#050707;stroke-width:0.4937;stroke-miterlimit:10;}
	.st21{fill:#E63329;stroke:#010202;stroke-width:0.1545;stroke-miterlimit:10;}
	.st22{fill:#37AB4D;stroke:#010202;stroke-width:0.75;stroke-miterlimit:10;}
	.st23{fill:#FCD802;stroke:#010202;stroke-width:1.4349;stroke-miterlimit:10;}
	.st24{fill:#FFFFFF;stroke:#010202;stroke-width:1.4349;stroke-miterlimit:10;}
	.st25{fill:none;stroke:#010202;stroke-width:1.4349;stroke-linecap:round;stroke-linejoin:round;stroke-miterlimit:10;}
	.st26{fill:#010202;}
	.st27{fill:#02A96B;stroke:#010202;stroke-width:0.75;stroke-miterlimit:10;}
	.st28{fill:#F7BA16;stroke:#010202;stroke-width:3.158;stroke-miterlimit:10;}
	.st29{fill:#FFFFFF;stroke:#010202;stroke-width:2.3588;stroke-miterlimit:10;}
	.st30{fill:#C21920;stroke:#010202;stroke-width:2.3588;stroke-miterlimit:10;}
	.st31{fill:#C21A21;stroke:#010202;stroke-width:1.1973;stroke-miterlimit:10;}
	.st32{fill:#70B966;stroke:#010202;stroke-miterlimit:10;}
	.st33{fill:#02A96B;}
	.st34{fill:#FFFFFF;stroke:#010202;stroke-width:2;stroke-miterlimit:10;}
	.st35{fill:#C21920;stroke:#010202;stroke-width:1.4407;stroke-miterlimit:10;}
	.st36{fill:#F8AB16;stroke:#010202;stroke-width:1.4407;stroke-miterlimit:10;}
	.st37{fill:#8E1963;stroke:#010202;stroke-width:1.4407;stroke-miterlimit:10;}
	.st38{fill:#FCD900;stroke:#010202;stroke-width:1.4407;stroke-miterlimit:10;}
	.st39{fill:#FFFFFF;stroke:#010202;stroke-width:1.8498;stroke-miterlimit:10;}
	.st40{fill:#8E1963;}
	.st41{fill:#8E1963;stroke:#010202;stroke-width:1.8764;stroke-miterlimit:10;}
	.st42{fill:#8E1963;stroke:#010202;stroke-width:1.4015;stroke-miterlimit:10;}
	.st43{fill:none;stroke:#010202;stroke-width:1.4015;stroke-linecap:round;stroke-linejoin:round;stroke-miterlimit:10;}
	.st44{fill:#C21920;stroke:#010202;stroke-width:1.8125;stroke-miterlimit:10;}
	.st45{fill:#FFFFFF;stroke:#010202;stroke-width:1.8478;stroke-miterlimit:10;}
	.st46{fill:#C21920;}
	.st47{fill:#F8AB16;stroke:#010202;stroke-width:1.7687;stroke-miterlimit:10;}
	.st48{fill:#F8AB16;}
	.st49{fill:#FCD900;}
	.st50{fill:none;stroke:#010202;stroke-width:1.6344;stroke-miterlimit:10;}
	.st51{fill:#FCD900;stroke:#010202;stroke-width:1.6344;stroke-miterlimit:10;}
	.st52{fill:#FFFFFF;stroke:#010202;stroke-width:0.9824;stroke-miterlimit:10;}
	.st53{fill:#C21920;stroke:#010202;stroke-width:0.4912;stroke-miterlimit:10;}
	.st54{fill:#8E1963;stroke:#010202;stroke-width:0.4912;stroke-miterlimit:10;}
	.st55{fill:#F8AB16;stroke:#010202;stroke-width:0.4912;stroke-miterlimit:10;}
	.st56{fill:#FFFFFF;stroke:#010202;stroke-width:2.0587;stroke-miterlimit:10;}
	.st57{fill:#8E1963;stroke:#010202;stroke-width:2.0883;stroke-miterlimit:10;}
	.st58{fill:#8E1963;stroke:#010202;stroke-width:1.5598;stroke-miterlimit:10;}
	.st59{fill:none;stroke:#010202;stroke-width:1.5598;stroke-linecap:round;stroke-linejoin:round;stroke-miterlimit:10;}
	.st60{fill:#C21920;stroke:#010202;stroke-width:2.0171;stroke-miterlimit:10;}
	.st61{fill:#FFFFFF;stroke:#010202;stroke-width:2.0565;stroke-miterlimit:10;}
	.st62{fill:#F8AB16;stroke:#010202;stroke-width:1.9685;stroke-miterlimit:10;}
	.st63{fill:#C11A22;stroke:#010202;stroke-width:2.0446;stroke-miterlimit:10;}
	.st64{fill:none;stroke:#010202;stroke-width:1.1741;stroke-miterlimit:10;}
	.st65{fill:#F7BA16;stroke:#010202;stroke-width:2.0446;stroke-miterlimit:10;}
	.st66{fill:#37AB4D;stroke:#010202;stroke-width:2.0446;stroke-miterlimit:10;}
	.st67{fill:#FFFFFF;stroke:#010202;stroke-width:1.3431;stroke-miterlimit:10;}
	.st68{fill:#FFFFFF;stroke:#010202;stroke-width:0.6716;stroke-miterlimit:10;}
	.st69{fill:#C21920;stroke:#010202;stroke-width:0.3358;stroke-miterlimit:10;}
	.st70{fill:#C21920;stroke:#010202;stroke-width:1.3431;stroke-miterlimit:10;}
	.st71{fill:#FFFFFF;stroke:#010202;stroke-width:1.3076;stroke-miterlimit:10;}
	.st72{fill:#C21920;stroke:#010202;stroke-width:1.3863;stroke-miterlimit:10;}
	.st73{fill:#FFFFFF;stroke:#010202;stroke-width:1.4948;stroke-miterlimit:10;}
	.st74{fill:#FFFFFF;stroke:#010202;stroke-width:0.7474;stroke-miterlimit:10;}
	.st75{fill:#C21920;stroke:#010202;stroke-width:0.3737;stroke-miterlimit:10;}
	.st76{fill:#C21920;stroke:#010202;stroke-width:1.4662;stroke-miterlimit:10;}
	.st77{fill:#F8AB16;stroke:#010202;stroke-width:0.3791;stroke-miterlimit:10;}
	.st78{fill:#F8AB16;stroke:#010202;stroke-width:1.4308;stroke-miterlimit:10;}
	.st79{fill:none;stroke:#010202;stroke-width:1.3222;stroke-miterlimit:10;}
	.st80{fill:#FCD900;stroke:#010202;stroke-width:0.3791;stroke-miterlimit:10;}
	.st81{fill:#FCD900;stroke:#010202;stroke-width:1.3222;stroke-miterlimit:10;}
	.st82{fill:#8E1963;stroke:#010202;stroke-width:0.3791;stroke-miterlimit:10;}
	.st83{fill:#8E1963;stroke:#010202;stroke-width:1.5163;stroke-miterlimit:10;}
	.st84{fill:#8E1963;stroke:#010202;stroke-width:1.1325;stroke-miterlimit:10;}
	.st85{fill:none;stroke:#010202;stroke-width:1.1325;stroke-linecap:round;stroke-linejoin:round;stroke-miterlimit:10;}
	.st86{fill:#FFFFFF;stroke:#010202;stroke-width:1.4206;stroke-miterlimit:10;}
	.st87{fill:#FFFFFF;stroke:#010202;stroke-width:0.7103;stroke-miterlimit:10;}
	.st88{fill:#C21920;stroke:#010202;stroke-width:0.3551;stroke-miterlimit:10;}
	.st89{fill:#C21920;stroke:#010202;stroke-width:1.4206;stroke-miterlimit:10;}
	.st90{fill:#FFFFFF;stroke:#010202;stroke-width:1.383;stroke-miterlimit:10;}
	.st91{fill:#FAEA2F;stroke:#010202;stroke-width:0.3551;stroke-miterlimit:10;}
	.st92{fill:#F8AB16;stroke:#010202;stroke-width:1.4205;stroke-miterlimit:10;}
	.st93{fill:#8E1963;stroke:#010202;stroke-width:1.6044;stroke-miterlimit:10;}
	.st94{fill:none;stroke:#010202;stroke-width:1.6044;stroke-linecap:round;stroke-linejoin:round;stroke-miterlimit:10;}
	.st95{fill:#FCD900;stroke:#010202;stroke-width:1.6789;stroke-miterlimit:10;}
	.st96{fill:#37AB4D;stroke:#010202;stroke-width:2;stroke-miterlimit:10;}
	.st97{fill:#C21920;stroke:#010202;stroke-width:1.7323;stroke-miterlimit:10;}
	.st98{fill:none;stroke:#C21A21;stroke-width:3.8955;stroke-linecap:round;stroke-linejoin:round;stroke-miterlimit:10;}
	.st99{fill:#333333;}
	.st100{fill:#FCD901;stroke:#010202;stroke-width:1.3419;stroke-miterlimit:10;}
	.st101{fill:#8E1963;stroke:#010202;stroke-width:1.216;stroke-miterlimit:10;}
	.st102{fill:none;stroke:#010202;stroke-width:1.216;stroke-linecap:round;stroke-linejoin:round;stroke-miterlimit:10;}
	.st103{fill:#F8AB16;stroke:#010202;stroke-width:1.5252;stroke-miterlimit:10;}
	.st104{opacity:0.52;fill:#7A8084;}
	.st105{fill:#2856A2;stroke:#010202;stroke-width:0.8146;stroke-miterlimit:10;}
	.st106{fill:#FFFFFF;stroke:#010202;stroke-width:0.3123;stroke-miterlimit:10;}
	.st107{fill:#FFFFFF;stroke:#010202;stroke-width:0.0923;stroke-miterlimit:10;}
	.st108{fill:#F7BA16;stroke:#010202;stroke-width:0.0612;stroke-miterlimit:10;}
	.st109{fill:#E63329;stroke:#010202;stroke-width:0.0612;stroke-miterlimit:10;}
	.st110{fill:#37AB4D;stroke:#010202;stroke-width:0.0612;stroke-miterlimit:10;}
	.st111{fill:#FFFFFF;stroke:#010202;stroke-width:0.0764;stroke-miterlimit:10;}
	.st112{fill:#F7BA16;stroke:#010202;stroke-width:0.0506;stroke-miterlimit:10;}
	.st113{fill:#E63329;stroke:#010202;stroke-width:0.0506;stroke-miterlimit:10;}
	.st114{fill:#37AB4D;stroke:#010202;stroke-width:0.0506;stroke-miterlimit:10;}
	.st115{fill:#179552;stroke:#010202;stroke-width:0.8326;stroke-miterlimit:10;}
	.st116{fill:#F7BA16;stroke:#010202;stroke-width:0.8146;stroke-miterlimit:10;}
	.st117{fill:#FFFFFF;stroke:#010202;stroke-width:0.4197;stroke-miterlimit:10;}
	.st118{fill:#E73836;stroke:#010202;stroke-width:0.1809;stroke-miterlimit:10;}
	.st119{fill:#D4D7EE;stroke:#010202;stroke-width:1.001;stroke-miterlimit:10;}
	.st120{fill:#FFFFFF;stroke:#010202;stroke-width:1.1881;stroke-miterlimit:10;}
	.st121{fill:#FFFFFF;stroke:#191919;stroke-width:0.9977;stroke-miterlimit:10;}
	.st122{fill:#C11A21;}
	.st123{fill:#2957A2;}
	.st124{fill:#D4D7EE;stroke:#010202;stroke-width:0.8539;stroke-miterlimit:10;}
	.st125{fill:#F7BA16;stroke:#010202;stroke-width:2.0392;stroke-miterlimit:10;}
	.st126{fill:none;stroke:#010202;stroke-width:1.171;stroke-miterlimit:10;}
	.st127{fill:#F7BA16;stroke:#010202;stroke-width:0.748;stroke-miterlimit:10;}
	.st128{fill:none;stroke:#010202;stroke-width:0.4027;stroke-miterlimit:10;}
	.st129{fill:#C11A22;stroke:#010202;stroke-width:0.3652;stroke-miterlimit:10;}
	.st130{fill:#C11A22;stroke:#010202;stroke-width:0.7033;stroke-miterlimit:10;}
</style>
<g>
	<path class="st26" d="M117.95,40.11h1.5c0.32,0,0.62,0.03,0.9,0.08c0.28,0.05,0.53,0.14,0.75,0.27c0.21,0.13,0.39,0.29,0.51,0.49
		c0.13,0.2,0.19,0.45,0.19,0.75c0,0.31,0,0.62-0.01,0.93s0,0.62,0.01,0.93c0,0.29,0.03,0.59,0.09,0.91
		c0.06,0.32,0.15,0.62,0.26,0.89c0.24,0.57,0.58,0.98,1.04,1.25c0.46,0.26,1.08,0.39,1.87,0.39h7.3c0.5,0,0.92-0.08,1.24-0.24
		c0.32-0.16,0.58-0.37,0.77-0.64c0.19-0.27,0.32-0.58,0.4-0.92s0.11-0.71,0.11-1.08v-3.63c0-0.34,0.07-0.61,0.23-0.82
		c0.15-0.2,0.34-0.36,0.58-0.47c0.24-0.11,0.5-0.18,0.78-0.23c0.29-0.04,0.56-0.06,0.82-0.07h1.45v5.21c0,0.37,0.04,0.74,0.12,1.09
		c0.08,0.35,0.21,0.66,0.4,0.92c0.19,0.26,0.45,0.48,0.77,0.63c0.33,0.16,0.74,0.24,1.25,0.24h0.9v2.97h-0.88
		c-0.48,0-0.91-0.05-1.29-0.17c-0.38-0.11-0.72-0.26-1.01-0.45c-0.3-0.19-0.55-0.4-0.77-0.65c-0.22-0.25-0.41-0.51-0.57-0.79
		c-0.44,0.64-1.02,1.15-1.74,1.51c-0.72,0.36-1.61,0.54-2.67,0.54h-8.19c-0.51,0-1.02-0.03-1.53-0.08s-0.99-0.15-1.45-0.29
		c-0.46-0.14-0.9-0.32-1.32-0.55c-0.42-0.23-0.79-0.51-1.12-0.85c-0.35-0.37-0.63-0.81-0.86-1.32c-0.22-0.51-0.39-1.04-0.52-1.6
		s-0.21-1.1-0.26-1.63c-0.04-0.53-0.07-1-0.07-1.41V40.11z M124.17,38.37c0-0.2,0.04-0.4,0.11-0.62c0.07-0.21,0.19-0.42,0.35-0.6
		c0.16-0.19,0.37-0.34,0.62-0.46s0.56-0.18,0.92-0.18c0.3,0,0.57,0.04,0.79,0.13s0.42,0.21,0.58,0.35c0.16,0.14,0.29,0.3,0.39,0.48
		c0.1,0.18,0.17,0.35,0.21,0.53c0.04-0.17,0.11-0.35,0.21-0.52s0.23-0.34,0.38-0.48c0.16-0.14,0.35-0.26,0.57-0.35
		s0.49-0.13,0.79-0.13c0.36,0,0.66,0.06,0.92,0.18s0.46,0.27,0.63,0.46c0.17,0.18,0.29,0.38,0.37,0.6c0.08,0.22,0.12,0.43,0.12,0.62
		s-0.04,0.4-0.12,0.62c-0.08,0.22-0.21,0.42-0.37,0.6c-0.17,0.18-0.38,0.34-0.63,0.46c-0.25,0.12-0.55,0.18-0.9,0.18
		c-0.29,0-0.55-0.04-0.78-0.13c-0.22-0.09-0.42-0.21-0.58-0.35c-0.16-0.14-0.29-0.3-0.39-0.48s-0.17-0.35-0.21-0.53
		c-0.04,0.18-0.11,0.36-0.21,0.53c-0.1,0.17-0.23,0.33-0.4,0.48c-0.16,0.14-0.36,0.26-0.59,0.35c-0.23,0.09-0.49,0.13-0.78,0.13
		c-0.35,0-0.65-0.06-0.9-0.18c-0.25-0.12-0.46-0.28-0.62-0.46s-0.28-0.39-0.36-0.6S124.17,38.57,124.17,38.37z"/>
	<path class="st26" d="M141.66,49.96v-2.97h3.16v-3.75c0-0.87,0.15-1.64,0.45-2.29c0.3-0.66,0.71-1.21,1.23-1.65
		c0.52-0.44,1.12-0.77,1.82-0.99c0.7-0.22,1.45-0.33,2.26-0.33c0.72,0,1.39,0.09,1.99,0.26c0.6,0.18,1.14,0.42,1.6,0.72
		c0.46,0.3,0.86,0.67,1.18,1.09c0.33,0.42,0.58,0.89,0.76,1.39c0.09,0.25,0.16,0.52,0.2,0.81c0.04,0.29,0.08,0.58,0.1,0.88
		s0.04,0.59,0.04,0.88c0,0.29,0.01,0.56,0.01,0.8c0,0.34-0.02,0.7-0.06,1.08c-0.04,0.38-0.11,0.74-0.21,1.09h3.33v2.97h-5.21
		c-0.11,0.09-0.23,0.18-0.36,0.26c-0.13,0.08-0.26,0.16-0.4,0.23c-0.27,0.15-0.56,0.28-0.88,0.37c-0.32,0.09-0.65,0.17-0.99,0.21
		s-0.67,0.08-1,0.1c-0.33,0.02-0.64,0.02-0.93,0.02h-0.11l-2.59-1.2H141.66z M150.53,48.2c0.39-0.02,0.72-0.12,1-0.3
		c0.27-0.19,0.49-0.43,0.67-0.71c0.17-0.29,0.29-0.61,0.37-0.96c0.07-0.35,0.11-0.7,0.11-1.03c0-0.24-0.01-0.51-0.02-0.82
		c-0.01-0.31-0.04-0.62-0.08-0.94c-0.04-0.32-0.1-0.62-0.18-0.9s-0.18-0.52-0.31-0.7c-0.19-0.26-0.41-0.45-0.66-0.57
		c-0.25-0.12-0.57-0.18-0.94-0.18c-0.66,0-1.19,0.21-1.59,0.63c-0.26,0.26-0.43,0.57-0.52,0.93c-0.09,0.36-0.13,0.72-0.13,1.09v3.42
		L150.53,48.2z"/>
	<path class="st26" d="M159.12,49.96v-2.97h3.16v-3.75c0-0.87,0.15-1.64,0.45-2.29c0.3-0.66,0.71-1.21,1.23-1.65
		c0.52-0.44,1.12-0.77,1.82-0.99c0.7-0.22,1.45-0.33,2.26-0.33c0.72,0,1.39,0.09,1.99,0.26c0.6,0.18,1.14,0.42,1.6,0.72
		c0.46,0.3,0.86,0.67,1.18,1.09c0.33,0.42,0.58,0.89,0.76,1.39c0.09,0.25,0.16,0.52,0.2,0.81c0.04,0.29,0.08,0.58,0.1,0.88
		s0.04,0.59,0.04,0.88c0,0.29,0.01,0.56,0.01,0.8c0,0.34-0.02,0.7-0.06,1.08c-0.04,0.38-0.11,0.74-0.21,1.09h3.33v2.97h-5.21
		c-0.11,0.09-0.23,0.18-0.36,0.26c-0.13,0.08-0.26,0.16-0.4,0.23c-0.27,0.15-0.56,0.28-0.88,0.37c-0.32,0.09-0.65,0.17-0.99,0.21
		s-0.67,0.08-1,0.1c-0.33,0.02-0.64,0.02-0.93,0.02h-0.11l-2.59-1.2H159.12z M167.99,48.2c0.39-0.02,0.72-0.12,1-0.3
		c0.27-0.19,0.49-0.43,0.67-0.71c0.17-0.29,0.29-0.61,0.37-0.96c0.07-0.35,0.11-0.7,0.11-1.03c0-0.24-0.01-0.51-0.02-0.82
		c-0.01-0.31-0.04-0.62-0.08-0.94c-0.04-0.32-0.1-0.62-0.18-0.9s-0.18-0.52-0.31-0.7c-0.19-0.26-0.41-0.45-0.66-0.57
		c-0.25-0.12-0.57-0.18-0.94-0.18c-0.66,0-1.19,0.21-1.59,0.63c-0.26,0.26-0.43,0.57-0.52,0.93c-0.09,0.36-0.13,0.72-0.13,1.09v3.42
		L167.99,48.2z"/>
	<path class="st26" d="M176.36,46.99h0.93c0.5,0,0.92-0.08,1.25-0.24c0.33-0.16,0.58-0.37,0.77-0.64c0.19-0.27,0.32-0.58,0.4-0.92
		c0.08-0.35,0.12-0.71,0.12-1.08v-3.63c0-0.29,0.06-0.54,0.19-0.74s0.3-0.37,0.51-0.49s0.46-0.21,0.75-0.27
		c0.28-0.06,0.58-0.09,0.9-0.09h1.5v5.21c0,0.53-0.06,1.06-0.17,1.59s-0.29,1.05-0.52,1.55c-0.4,0.83-0.99,1.49-1.76,1.98
		s-1.78,0.73-3.02,0.73h-1.82V46.99z M179.24,33.31c0.34,0,0.64,0.06,0.89,0.18c0.25,0.12,0.46,0.27,0.62,0.46
		c0.16,0.18,0.28,0.38,0.36,0.6c0.08,0.22,0.12,0.42,0.12,0.61c0,0.19-0.04,0.39-0.12,0.6c-0.08,0.21-0.2,0.41-0.37,0.59
		c-0.17,0.18-0.38,0.34-0.62,0.46s-0.54,0.18-0.88,0.18c-0.25,0-0.5-0.05-0.74-0.14c-0.24-0.09-0.45-0.22-0.63-0.38
		c-0.18-0.16-0.33-0.36-0.44-0.58c-0.11-0.22-0.17-0.47-0.17-0.73c0-0.19,0.04-0.39,0.12-0.6c0.08-0.21,0.2-0.42,0.36-0.6
		c0.16-0.19,0.37-0.34,0.62-0.46C178.61,33.37,178.9,33.31,179.24,33.31z M183.31,33.31c0.35,0,0.65,0.06,0.9,0.18
		s0.45,0.27,0.61,0.46c0.16,0.18,0.28,0.38,0.35,0.6c0.08,0.22,0.12,0.42,0.12,0.61c0,0.18-0.04,0.38-0.12,0.59
		c-0.08,0.22-0.2,0.42-0.36,0.6c-0.16,0.18-0.37,0.34-0.62,0.46c-0.25,0.12-0.54,0.18-0.88,0.18c-0.25,0-0.5-0.05-0.73-0.14
		c-0.24-0.09-0.45-0.22-0.63-0.38c-0.18-0.16-0.33-0.36-0.45-0.58c-0.11-0.22-0.17-0.47-0.17-0.73c0-0.19,0.04-0.39,0.12-0.61
		s0.2-0.42,0.35-0.6c0.16-0.18,0.36-0.33,0.62-0.46S182.97,33.31,183.31,33.31z"/>
	<path class="st26" d="M184.97,31.33v-0.63h1.06c-0.25-0.44-0.38-0.89-0.38-1.34c0-0.31,0.06-0.61,0.19-0.92s0.31-0.57,0.56-0.8
		c0.24-0.23,0.55-0.42,0.91-0.56s0.78-0.21,1.25-0.21c0.5,0,0.95,0.06,1.35,0.18c0.39,0.12,0.78,0.29,1.17,0.51l0.18,0.12
		l-0.05,0.16c-0.05,0.14-0.1,0.27-0.17,0.4c-0.06,0.13-0.13,0.24-0.22,0.34c-0.08,0.1-0.19,0.18-0.31,0.24
		c-0.12,0.06-0.27,0.09-0.44,0.09c-0.11,0-0.22-0.01-0.32-0.04c-0.15-0.05-0.3-0.09-0.45-0.12c-0.07-0.01-0.13-0.01-0.2-0.02
		s-0.13-0.01-0.2-0.01c-0.24,0-0.45,0.07-0.6,0.2c-0.16,0.13-0.24,0.3-0.24,0.51c0,0.37,0.15,0.68,0.45,0.91
		c0.3,0.23,0.7,0.35,1.18,0.35h0.51c0.4,0.01,0.68,0.12,0.84,0.34c0.16,0.22,0.24,0.5,0.24,0.85v0.66h-5.27
		c-0.2,0-0.36-0.03-0.5-0.1c-0.13-0.06-0.24-0.15-0.32-0.26c-0.08-0.11-0.14-0.24-0.18-0.38C184.99,31.66,184.97,31.5,184.97,31.33z
		 M188.46,33.38h1.49v14.99c0,0.29-0.06,0.54-0.19,0.75c-0.13,0.2-0.3,0.37-0.51,0.49c-0.22,0.13-0.47,0.22-0.75,0.27
		s-0.59,0.08-0.9,0.08h-1.48v-0.28c0-2.47,0-4.92-0.01-7.36c0-2.44-0.01-4.89-0.01-7.35c0-0.29,0.06-0.54,0.19-0.74
		c0.13-0.2,0.3-0.37,0.51-0.5c0.21-0.13,0.47-0.21,0.75-0.27C187.84,33.41,188.14,33.38,188.46,33.38z"/>
	<path class="st26" d="M197.93,49.96v-0.72c0-0.28,0.02-0.55,0.07-0.82s0.14-0.51,0.27-0.72s0.3-0.38,0.52-0.51s0.49-0.2,0.82-0.2
		h5.35v-3.38c0-0.48-0.04-0.94-0.11-1.38c-0.07-0.44-0.21-0.83-0.4-1.18c-0.2-0.35-0.46-0.64-0.8-0.88
		c-0.34-0.24-0.78-0.39-1.31-0.45c-0.07-0.01-0.13-0.01-0.16-0.02s-0.07-0.01-0.1-0.01h-0.32c-0.33-0.02-0.61-0.1-0.82-0.23
		c-0.22-0.13-0.38-0.29-0.51-0.49c-0.12-0.2-0.21-0.43-0.26-0.7s-0.07-0.54-0.07-0.83v-0.72h1.76c1.39,0,2.54,0.18,3.44,0.55
		c0.9,0.37,1.61,0.86,2.13,1.48c0.52,0.62,0.88,1.33,1.08,2.13c0.2,0.8,0.3,1.64,0.3,2.51v3.6h2.94v2.97H197.93z"/>
	<path class="st26" d="M211.02,49.96v-2.97h3.26c-0.09-0.24-0.15-0.5-0.2-0.75c-0.04-0.26-0.06-0.51-0.06-0.76v-2.23
		c0-0.87,0.15-1.64,0.45-2.29c0.3-0.66,0.71-1.21,1.23-1.65c0.52-0.44,1.12-0.77,1.83-0.99c0.7-0.22,1.45-0.33,2.26-0.33
		c0.73,0,1.4,0.09,2,0.26c0.6,0.18,1.13,0.42,1.59,0.72c0.46,0.3,0.86,0.67,1.18,1.09c0.33,0.42,0.58,0.89,0.76,1.39
		c0.09,0.25,0.16,0.52,0.21,0.81s0.08,0.58,0.11,0.88c0.02,0.3,0.04,0.59,0.04,0.88s0.01,0.56,0.01,0.8c0,0.37-0.03,0.73-0.07,1.09
		c-0.05,0.36-0.12,0.72-0.21,1.08h3.7v2.97H211.02z M215.71,34.05c0-0.2,0.04-0.4,0.12-0.62c0.08-0.22,0.2-0.42,0.35-0.6
		c0.16-0.18,0.37-0.33,0.62-0.46c0.26-0.12,0.56-0.18,0.91-0.18c0.36,0,0.66,0.06,0.92,0.18c0.25,0.12,0.46,0.27,0.63,0.46
		c0.17,0.18,0.29,0.38,0.37,0.6s0.12,0.43,0.12,0.62s-0.04,0.4-0.12,0.62s-0.21,0.42-0.37,0.6c-0.17,0.18-0.38,0.34-0.63,0.46
		s-0.55,0.18-0.9,0.18c-0.34,0-0.64-0.06-0.89-0.18c-0.25-0.12-0.46-0.27-0.63-0.46c-0.17-0.18-0.29-0.38-0.37-0.6
		C215.74,34.44,215.71,34.24,215.71,34.05z M217.64,45.12c0,0.19,0.02,0.38,0.07,0.56c0.1,0.42,0.29,0.73,0.57,0.94
		c0.28,0.21,0.69,0.32,1.23,0.32h2.17c0.14-0.29,0.24-0.58,0.3-0.89c0.06-0.31,0.09-0.62,0.09-0.94c0-0.24-0.01-0.51-0.02-0.82
		c-0.01-0.31-0.04-0.62-0.08-0.94c-0.04-0.32-0.1-0.62-0.18-0.9s-0.18-0.52-0.31-0.7c-0.19-0.25-0.41-0.44-0.66-0.57
		c-0.25-0.13-0.57-0.19-0.94-0.19c-0.4,0-0.74,0.07-1.02,0.21c-0.28,0.14-0.51,0.33-0.7,0.57c-0.18,0.24-0.32,0.52-0.4,0.84
		c-0.08,0.32-0.13,0.67-0.13,1.03V45.12z M221.9,32.18c0.36,0,0.66,0.06,0.92,0.18s0.46,0.27,0.63,0.46
		c0.17,0.18,0.29,0.38,0.37,0.6c0.08,0.22,0.12,0.43,0.12,0.62s-0.04,0.4-0.12,0.62c-0.08,0.22-0.21,0.42-0.37,0.6
		c-0.17,0.18-0.38,0.34-0.63,0.46c-0.25,0.12-0.55,0.18-0.9,0.18c-0.34,0-0.64-0.06-0.89-0.18s-0.46-0.27-0.63-0.46
		c-0.17-0.18-0.29-0.38-0.37-0.6s-0.12-0.42-0.12-0.61c0-0.2,0.04-0.4,0.12-0.62s0.2-0.42,0.35-0.6c0.16-0.18,0.37-0.33,0.62-0.46
		C221.24,32.24,221.55,32.18,221.9,32.18z"/>
	<path class="st26" d="M228.37,46.99h0.38c0.51,0,0.94-0.08,1.27-0.23c0.33-0.15,0.6-0.36,0.79-0.63c0.2-0.26,0.33-0.57,0.4-0.92
		c0.07-0.35,0.11-0.72,0.11-1.1V33.78c0-0.29,0.06-0.54,0.19-0.75c0.13-0.2,0.3-0.37,0.51-0.49c0.21-0.13,0.47-0.22,0.75-0.27
		c0.28-0.05,0.59-0.08,0.9-0.08h1.49v11.91c0,0.53-0.06,1.06-0.17,1.59c-0.11,0.53-0.29,1.05-0.52,1.55
		c-0.39,0.83-0.98,1.49-1.76,1.98s-1.79,0.73-3.01,0.73h-1.33V46.99z"/>
	<path class="st26" d="M242.38,43.4v-3.3h1.5c0.32,0,0.62,0.03,0.9,0.08c0.28,0.05,0.53,0.14,0.75,0.27
		c0.21,0.13,0.39,0.29,0.51,0.49c0.13,0.2,0.19,0.45,0.19,0.75c0,0.31,0,0.62-0.01,0.93s0,0.62,0.01,0.93
		c0,0.29,0.03,0.59,0.09,0.91c0.06,0.32,0.15,0.62,0.26,0.89c0.24,0.58,0.58,0.99,1.04,1.25c0.46,0.26,1.08,0.38,1.87,0.38h4.88
		c0.5,0,0.92-0.08,1.25-0.24c0.33-0.16,0.58-0.37,0.77-0.64s0.32-0.58,0.4-0.92s0.12-0.71,0.12-1.08V33.78
		c0-0.34,0.08-0.62,0.23-0.82c0.15-0.21,0.34-0.37,0.57-0.48c0.23-0.11,0.49-0.18,0.77-0.22c0.28-0.04,0.56-0.06,0.82-0.07h1.45
		v11.91c0,0.53-0.06,1.06-0.17,1.59c-0.11,0.53-0.29,1.05-0.52,1.55c-0.4,0.83-0.99,1.49-1.76,1.98c-0.78,0.49-1.78,0.73-3.02,0.73
		h-5.77c-0.51,0-1.02-0.03-1.53-0.08s-0.99-0.15-1.45-0.29c-0.46-0.14-0.9-0.32-1.31-0.55c-0.41-0.23-0.79-0.51-1.13-0.85
		c-0.31-0.32-0.57-0.67-0.79-1.07c-0.22-0.4-0.39-0.81-0.52-1.23c-0.13-0.42-0.23-0.85-0.29-1.27
		C242.41,44.17,242.38,43.78,242.38,43.4z M248.11,41.52v-0.66l1.16-0.01c-0.27-0.46-0.4-0.95-0.4-1.46c0-0.33,0.07-0.66,0.2-0.98
		c0.13-0.32,0.33-0.6,0.59-0.85c0.26-0.25,0.58-0.45,0.97-0.6s0.84-0.23,1.35-0.23c0.54,0,1.01,0.07,1.43,0.2s0.83,0.31,1.24,0.55
		l0.18,0.12l-0.05,0.17c-0.02,0.07-0.06,0.17-0.1,0.29s-0.11,0.23-0.19,0.34c-0.07,0.11-0.18,0.23-0.32,0.33
		c-0.14,0.11-0.33,0.17-0.58,0.17c-0.07,0-0.14-0.01-0.2-0.02c-0.06-0.01-0.11-0.03-0.15-0.04c-0.15-0.04-0.31-0.07-0.46-0.1
		s-0.3-0.04-0.45-0.04c-0.28,0-0.5,0.07-0.67,0.21c-0.17,0.14-0.26,0.33-0.26,0.57c0,0.42,0.16,0.74,0.49,0.98
		c0.33,0.24,0.76,0.37,1.31,0.37l0.55,0.01c0.75,0.02,1.12,0.41,1.12,1.15v0.82h-5.65c-0.2,0-0.38-0.04-0.52-0.1
		c-0.14-0.07-0.26-0.16-0.34-0.28c-0.08-0.12-0.15-0.25-0.18-0.41C248.12,41.87,248.11,41.7,248.11,41.52z"/>
	<path class="st26" d="M262.95,45.24V43c0-0.87,0.15-1.63,0.45-2.29c0.3-0.65,0.71-1.2,1.23-1.64c0.52-0.44,1.12-0.77,1.82-0.99
		c0.7-0.22,1.45-0.33,2.26-0.33c0.73,0,1.4,0.09,2,0.26c0.6,0.17,1.13,0.42,1.59,0.72c0.46,0.31,0.86,0.67,1.18,1.09
		c0.33,0.42,0.58,0.89,0.76,1.39c0.09,0.24,0.16,0.51,0.21,0.81s0.08,0.59,0.1,0.88c0.02,0.3,0.03,0.59,0.04,0.87
		c0,0.29,0.01,0.55,0.01,0.79v4.65c-0.01,0.53-0.04,1.05-0.1,1.57c-0.06,0.52-0.18,1.01-0.34,1.48c-0.17,0.47-0.4,0.91-0.68,1.31
		c-0.29,0.4-0.66,0.75-1.12,1.06c-0.46,0.3-1.02,0.54-1.67,0.73c-0.66,0.18-1.43,0.29-2.33,0.31c-2.31,0.01-3.92,0.01-4.82,0.01
		v-0.87c0-0.28,0.03-0.54,0.09-0.79s0.15-0.47,0.28-0.67c0.13-0.19,0.3-0.34,0.52-0.46c0.21-0.11,0.48-0.17,0.8-0.18h2.76
		c0.5,0,0.91-0.05,1.25-0.15c0.33-0.1,0.61-0.26,0.82-0.48s0.37-0.49,0.47-0.83s0.17-0.75,0.19-1.23c-0.29,0.03-0.57,0.06-0.85,0.08
		s-0.57,0.03-0.85,0.03c-0.51,0-1.02-0.03-1.53-0.1s-1-0.18-1.48-0.35c-0.33-0.11-0.62-0.27-0.9-0.47c-0.27-0.2-0.51-0.42-0.73-0.66
		c-0.21-0.24-0.4-0.48-0.56-0.73c-0.16-0.25-0.3-0.48-0.42-0.69c-0.15-0.31-0.26-0.63-0.32-0.95
		C262.98,45.87,262.95,45.55,262.95,45.24z M268.42,46.71h2.49c0.04-0.31,0.07-0.62,0.07-0.92c0.01-0.3,0.01-0.61,0.01-0.92
		c0-0.24-0.01-0.51-0.02-0.82c-0.01-0.31-0.04-0.62-0.08-0.94c-0.04-0.32-0.1-0.62-0.18-0.9s-0.18-0.52-0.32-0.7
		c-0.19-0.25-0.41-0.44-0.66-0.56s-0.56-0.18-0.93-0.18c-0.4,0-0.74,0.07-1.03,0.2c-0.29,0.13-0.52,0.32-0.7,0.56
		c-0.18,0.24-0.31,0.52-0.4,0.84c-0.08,0.32-0.13,0.67-0.13,1.03v1.48c0,0.59,0.16,1.04,0.47,1.36S267.81,46.71,268.42,46.71z"/>
	<path class="st26" d="M274.59,54.91c0-0.29,0.02-0.56,0.07-0.82c0.05-0.26,0.14-0.5,0.26-0.7c0.13-0.2,0.3-0.37,0.51-0.5
		s0.49-0.2,0.82-0.22h0.18c0.24,0,0.45-0.07,0.65-0.2c0.2-0.13,0.39-0.3,0.58-0.5c0.14-0.15,0.25-0.31,0.33-0.5
		c0.09-0.19,0.15-0.38,0.2-0.59c0.05-0.21,0.08-0.42,0.1-0.63c0.02-0.22,0.02-0.42,0.02-0.62v-8.68l0.01-0.46
		c0-0.29,0.06-0.54,0.19-0.74c0.13-0.2,0.3-0.37,0.51-0.49c0.21-0.12,0.47-0.21,0.75-0.27c0.29-0.06,0.59-0.09,0.9-0.09h1.5v2.41
		l-0.01,5.69h2.99v2.97h-3c-0.02,0.72-0.12,1.42-0.31,2.1s-0.52,1.27-0.98,1.79c-0.46,0.52-1.08,0.94-1.85,1.25
		c-0.77,0.31-1.75,0.46-2.93,0.46h-1.53V54.91z"/>
	<path class="st26" d="M284.46,46.99h0.93c0.5,0,0.92-0.08,1.25-0.24c0.33-0.16,0.58-0.37,0.77-0.64c0.19-0.27,0.32-0.58,0.4-0.92
		c0.08-0.35,0.12-0.71,0.12-1.08v-3.63c0-0.29,0.06-0.54,0.19-0.74s0.3-0.37,0.51-0.49s0.46-0.21,0.75-0.27
		c0.28-0.06,0.58-0.09,0.9-0.09h1.5v5.21c0,0.37,0.04,0.74,0.12,1.09c0.08,0.35,0.21,0.66,0.4,0.92s0.45,0.48,0.78,0.63
		c0.33,0.16,0.74,0.24,1.25,0.24h0.9v2.97h-0.88c-0.48,0-0.91-0.05-1.29-0.17c-0.38-0.11-0.72-0.26-1.01-0.45
		c-0.3-0.19-0.55-0.4-0.77-0.65c-0.22-0.25-0.4-0.51-0.57-0.79c-0.43,0.64-1.01,1.15-1.73,1.51s-1.62,0.54-2.67,0.54h-1.82V46.99z
		 M287.75,53.46c0-0.2,0.04-0.41,0.12-0.63c0.08-0.23,0.21-0.44,0.37-0.63s0.38-0.35,0.64-0.48c0.26-0.13,0.57-0.2,0.94-0.2
		c0.36,0,0.67,0.06,0.93,0.19s0.48,0.29,0.65,0.48s0.3,0.41,0.38,0.63c0.08,0.23,0.12,0.44,0.12,0.63c0,0.2-0.04,0.42-0.13,0.65
		c-0.08,0.23-0.21,0.44-0.38,0.63c-0.17,0.19-0.39,0.35-0.65,0.48c-0.26,0.13-0.57,0.19-0.93,0.19s-0.67-0.06-0.93-0.19
		c-0.26-0.13-0.48-0.29-0.65-0.48c-0.17-0.2-0.3-0.41-0.38-0.63C287.79,53.87,287.75,53.66,287.75,53.46z"/>
	<path class="st26" d="M294.67,49.96v-2.97h3.16v-3.75c0-0.86,0.15-1.62,0.44-2.28s0.7-1.2,1.21-1.65c0.51-0.44,1.12-0.78,1.83-1
		c0.7-0.22,1.47-0.33,2.29-0.33c0.73,0,1.4,0.09,2,0.26c0.6,0.18,1.13,0.42,1.59,0.72c0.46,0.3,0.86,0.67,1.18,1.09
		c0.33,0.42,0.58,0.89,0.76,1.39c0.09,0.24,0.16,0.51,0.21,0.81s0.08,0.59,0.1,0.88s0.03,0.59,0.04,0.88c0,0.29,0.01,0.56,0.01,0.8
		c0,0.62-0.07,1.25-0.21,1.89c-0.07,0.37-0.18,0.72-0.31,1.07c-0.13,0.35-0.31,0.68-0.53,1s-0.48,0.62-0.79,0.9
		c-0.31,0.28-0.66,0.54-1.07,0.76c-0.27,0.15-0.56,0.28-0.88,0.37c-0.32,0.09-0.65,0.17-0.98,0.21c-0.33,0.05-0.67,0.08-1,0.1
		c-0.33,0.02-0.65,0.02-0.94,0.02h-0.11l-2.59-1.2H294.67z M303.62,48.13c0.39-0.02,0.72-0.12,1-0.3c0.27-0.19,0.49-0.43,0.67-0.71
		c0.17-0.29,0.29-0.61,0.37-0.96c0.07-0.35,0.11-0.7,0.11-1.03c0-0.24-0.01-0.51-0.02-0.82c-0.01-0.31-0.04-0.62-0.08-0.94
		c-0.04-0.32-0.1-0.62-0.18-0.9s-0.18-0.52-0.31-0.7c-0.19-0.26-0.41-0.45-0.66-0.57c-0.25-0.12-0.57-0.18-0.94-0.18
		c-0.4,0-0.74,0.07-1.02,0.21c-0.28,0.14-0.51,0.33-0.7,0.57c-0.18,0.24-0.32,0.52-0.4,0.84c-0.08,0.32-0.13,0.67-0.13,1.03v3.42
		L303.62,48.13z"/>
	<path class="st26" d="M109.48,76.26c0.37,0,0.68,0.06,0.95,0.19c0.27,0.13,0.49,0.29,0.67,0.48c0.17,0.19,0.3,0.4,0.39,0.63
		c0.08,0.23,0.13,0.45,0.13,0.67c0,0.2-0.04,0.42-0.13,0.65c-0.09,0.23-0.22,0.45-0.39,0.64c-0.18,0.2-0.4,0.36-0.67,0.49
		c-0.27,0.13-0.59,0.2-0.95,0.2c-0.37,0-0.68-0.07-0.95-0.2c-0.27-0.13-0.49-0.29-0.67-0.49s-0.3-0.41-0.38-0.64
		c-0.08-0.23-0.12-0.45-0.12-0.65c0-0.21,0.04-0.43,0.12-0.66c0.08-0.23,0.21-0.44,0.38-0.63s0.4-0.36,0.67-0.48
		C108.8,76.32,109.12,76.26,109.48,76.26z M107.57,62.2h3.85l-0.26,12.1h-3.33L107.57,62.2z"/>
	<path class="st26" d="M120.75,66.55c0.72,0,1.39,0.09,1.99,0.26s1.14,0.42,1.6,0.72c0.46,0.31,0.86,0.67,1.18,1.09
		c0.33,0.42,0.58,0.89,0.76,1.39c0.09,0.25,0.16,0.52,0.2,0.81c0.04,0.29,0.08,0.58,0.1,0.88c0.03,0.3,0.04,0.59,0.04,0.87
		c0,0.29,0.01,0.55,0.01,0.79v3.32c0.2,0.11,0.41,0.19,0.63,0.22s0.44,0.06,0.67,0.07h0.98v2.97h-1.97c-0.69,0-1.29-0.12-1.79-0.35
		c-0.5-0.23-0.94-0.55-1.31-0.95c-0.46,0.09-0.92,0.16-1.39,0.21s-0.95,0.08-1.43,0.08c-0.5,0-1.01-0.03-1.53-0.1
		s-1.01-0.18-1.49-0.35c-0.33-0.11-0.62-0.27-0.9-0.47c-0.27-0.2-0.51-0.42-0.73-0.65c-0.21-0.24-0.4-0.48-0.56-0.73
		c-0.16-0.25-0.3-0.48-0.42-0.7c-0.15-0.31-0.26-0.62-0.32-0.95c-0.06-0.32-0.09-0.64-0.09-0.96v-2.23c0-0.87,0.15-1.64,0.45-2.29
		s0.71-1.21,1.23-1.65s1.12-0.77,1.83-0.99S119.94,66.55,120.75,66.55z M118.61,62.18c0.3,0,0.57,0.04,0.79,0.13
		c0.23,0.09,0.42,0.2,0.58,0.34c0.16,0.14,0.29,0.3,0.39,0.48c0.1,0.18,0.17,0.36,0.21,0.54c0.04-0.18,0.11-0.36,0.21-0.53
		c0.1-0.17,0.23-0.33,0.38-0.48c0.16-0.14,0.35-0.26,0.57-0.35c0.22-0.09,0.49-0.13,0.79-0.13c0.36,0,0.66,0.06,0.92,0.18
		c0.25,0.12,0.46,0.27,0.63,0.46c0.17,0.18,0.29,0.38,0.37,0.6s0.12,0.43,0.12,0.62c0,0.2-0.04,0.4-0.12,0.62s-0.21,0.42-0.37,0.6
		c-0.17,0.18-0.38,0.34-0.63,0.46s-0.55,0.18-0.9,0.18c-0.29,0-0.55-0.04-0.78-0.13c-0.22-0.09-0.42-0.21-0.58-0.35
		c-0.16-0.14-0.29-0.3-0.39-0.48c-0.1-0.17-0.17-0.35-0.21-0.53c-0.04,0.18-0.11,0.36-0.21,0.54s-0.23,0.34-0.4,0.48
		c-0.16,0.14-0.36,0.25-0.59,0.34c-0.23,0.09-0.49,0.13-0.78,0.13c-0.35,0-0.65-0.06-0.9-0.18s-0.46-0.27-0.62-0.46
		c-0.16-0.18-0.28-0.38-0.36-0.6c-0.08-0.22-0.12-0.42-0.12-0.61c0-0.2,0.04-0.4,0.11-0.62c0.07-0.22,0.19-0.42,0.35-0.6
		c0.16-0.18,0.37-0.33,0.62-0.46C117.95,62.24,118.25,62.18,118.61,62.18z M118.6,73.69c0,0.59,0.16,1.04,0.47,1.35
		c0.31,0.31,0.77,0.47,1.39,0.47h2.49c0.04-0.31,0.06-0.61,0.07-0.92c0.01-0.3,0.01-0.61,0.01-0.92c0-0.24-0.01-0.51-0.02-0.82
		c-0.01-0.31-0.04-0.62-0.08-0.94s-0.1-0.62-0.18-0.91c-0.08-0.29-0.19-0.52-0.32-0.7c-0.19-0.25-0.41-0.44-0.66-0.56
		c-0.25-0.12-0.56-0.18-0.93-0.18c-0.4,0-0.74,0.07-1.03,0.21c-0.29,0.14-0.52,0.33-0.7,0.57c-0.18,0.24-0.31,0.52-0.4,0.84
		c-0.09,0.32-0.13,0.67-0.13,1.03V73.69z"/>
	<path class="st26" d="M128.32,76.99h0.93c0.5,0,0.92-0.08,1.25-0.24c0.33-0.16,0.58-0.37,0.77-0.64c0.19-0.27,0.32-0.58,0.4-0.92
		c0.08-0.35,0.12-0.71,0.12-1.08v-3.63c0-0.29,0.06-0.54,0.19-0.74s0.3-0.37,0.51-0.49s0.46-0.21,0.75-0.27
		c0.28-0.06,0.58-0.09,0.9-0.09h1.5v5.21c0,0.37,0.04,0.74,0.12,1.09c0.08,0.35,0.21,0.66,0.4,0.92s0.45,0.48,0.78,0.63
		c0.33,0.16,0.74,0.24,1.25,0.24h0.9v2.97h-0.88c-0.48,0-0.91-0.05-1.29-0.17c-0.38-0.11-0.72-0.26-1.01-0.45
		c-0.3-0.19-0.55-0.4-0.77-0.65c-0.22-0.25-0.4-0.51-0.57-0.79c-0.43,0.64-1.01,1.15-1.73,1.51s-1.62,0.54-2.67,0.54h-1.82V76.99z
		 M131.61,83.46c0-0.2,0.04-0.41,0.12-0.63c0.08-0.23,0.21-0.44,0.37-0.63s0.38-0.35,0.64-0.48c0.26-0.13,0.57-0.2,0.94-0.2
		c0.36,0,0.67,0.06,0.93,0.19s0.48,0.29,0.65,0.48s0.3,0.41,0.38,0.63c0.08,0.23,0.12,0.44,0.12,0.63c0,0.2-0.04,0.42-0.13,0.65
		c-0.08,0.23-0.21,0.44-0.38,0.63c-0.17,0.19-0.39,0.35-0.65,0.48c-0.26,0.13-0.57,0.19-0.93,0.19s-0.67-0.06-0.93-0.19
		c-0.26-0.13-0.48-0.29-0.65-0.48c-0.17-0.2-0.3-0.41-0.38-0.63C131.66,83.87,131.61,83.66,131.61,83.46z"/>
	<path class="st26" d="M138.33,76.99h0.38c0.74,0,1.48,0,2.22,0.01s1.48,0,2.22-0.01c0.4,0,0.8,0,1.2-0.01c0.4,0,0.8-0.01,1.2-0.02
		c0.1,0,0.21-0.01,0.34-0.03c0.13-0.02,0.26-0.04,0.4-0.07l-3.04-3.21c-0.16-0.17-0.31-0.32-0.45-0.46
		c-0.14-0.13-0.28-0.27-0.42-0.4c-0.14-0.14-0.27-0.28-0.41-0.43c-0.13-0.15-0.27-0.32-0.42-0.51c-0.01-0.01-0.02-0.02-0.02-0.04
		c-0.01-0.02-0.02-0.06-0.04-0.12c0-0.05-0.01-0.11-0.04-0.2c-0.04-0.24-0.08-0.48-0.12-0.72s-0.09-0.48-0.16-0.72l-0.02-0.12
		l0.08-0.08c0.85-0.94,1.85-1.67,3.01-2.21c1.16-0.54,2.5-0.84,4.02-0.92h0.39c0.59,0,1.18,0.04,1.76,0.12
		c0.58,0.08,1.14,0.2,1.68,0.35c0.54,0.16,1.06,0.36,1.55,0.61c0.49,0.25,0.95,0.55,1.36,0.9c0.22,0.18,0.43,0.38,0.65,0.6
		s0.4,0.46,0.57,0.71c0.17,0.25,0.3,0.51,0.4,0.78c0.1,0.27,0.15,0.54,0.15,0.82s-0.05,0.55-0.14,0.81s-0.21,0.52-0.36,0.77
		c-0.15,0.25-0.31,0.49-0.5,0.71c-0.18,0.23-0.36,0.44-0.54,0.65c-0.37,0.46-0.78,0.9-1.2,1.31c-0.43,0.41-0.88,0.79-1.35,1.15h6.45
		v2.93h-10.55l-0.65-0.46c-0.37,0.11-0.7,0.2-1.01,0.26c-0.31,0.06-0.61,0.1-0.92,0.13c-0.33,0.02-0.66,0.04-1.01,0.04
		c-0.35,0-0.75,0.01-1.2,0.02c-0.85,0.01-1.7,0.01-2.54,0.01c-0.84,0-1.68,0-2.54,0.01h-0.38V76.99z M145.6,70.89l3.78,4.27
		c0.56-0.31,1.1-0.66,1.63-1.05c0.52-0.39,1.01-0.82,1.45-1.29c0.07-0.07,0.13-0.16,0.2-0.25c0.07-0.09,0.13-0.19,0.18-0.29
		c0.06-0.1,0.1-0.19,0.13-0.29s0.05-0.17,0.05-0.24c0-0.08-0.04-0.18-0.13-0.3c-0.09-0.12-0.18-0.23-0.29-0.32
		c-0.47-0.37-1.02-0.64-1.65-0.81c-0.63-0.17-1.29-0.26-1.98-0.26c-0.64,0-1.24,0.07-1.79,0.2C146.64,70.39,146.11,70.6,145.6,70.89
		z"/>
	<path class="st26" d="M158.38,79.96v-2.97h0.93c0.5,0,0.91-0.08,1.23-0.23c0.32-0.15,0.58-0.36,0.77-0.62
		c0.19-0.26,0.33-0.56,0.4-0.9s0.12-0.7,0.12-1.07V63.78c0-0.29,0.06-0.54,0.19-0.75c0.13-0.2,0.3-0.37,0.51-0.49
		c0.21-0.13,0.46-0.22,0.74-0.27c0.28-0.05,0.58-0.08,0.9-0.08h1.5v11.91c0,0.37,0.04,0.73,0.12,1.08s0.21,0.65,0.41,0.92
		s0.46,0.48,0.79,0.64c0.33,0.16,0.74,0.24,1.24,0.24h0.9v2.97h-0.88c-0.48,0-0.91-0.05-1.29-0.17c-0.38-0.11-0.72-0.26-1.01-0.45
		c-0.3-0.19-0.55-0.4-0.77-0.65c-0.22-0.25-0.4-0.51-0.57-0.79c-0.43,0.64-1.01,1.15-1.73,1.51s-1.62,0.54-2.67,0.54H158.38z"/>
	<path class="st26" d="M168.39,76.99h0.38c0.51,0,0.94-0.08,1.27-0.23c0.33-0.15,0.6-0.36,0.79-0.63c0.2-0.26,0.33-0.57,0.4-0.92
		c0.07-0.35,0.11-0.72,0.11-1.1V63.78c0-0.29,0.06-0.54,0.19-0.75c0.13-0.2,0.3-0.37,0.51-0.49c0.21-0.13,0.47-0.22,0.75-0.27
		c0.28-0.05,0.59-0.08,0.9-0.08h1.49v11.91c0,0.53-0.06,1.06-0.17,1.59c-0.11,0.53-0.29,1.05-0.52,1.55
		c-0.39,0.83-0.98,1.49-1.76,1.98s-1.79,0.73-3.01,0.73h-1.33V76.99z"/>
	<path class="st26" d="M180.44,62.2h1.49v16.17c0,0.29-0.06,0.54-0.19,0.75s-0.3,0.37-0.51,0.49s-0.46,0.22-0.74,0.27
		c-0.28,0.05-0.58,0.08-0.9,0.08h-1.49v-0.28c0-2.67,0-5.32-0.01-7.95c0-2.63-0.01-5.28-0.01-7.94c0-0.29,0.06-0.54,0.19-0.75
		c0.13-0.2,0.3-0.37,0.51-0.49s0.47-0.22,0.75-0.27S180.12,62.2,180.44,62.2z"/>
	<path class="st26" d="M189.85,79.13v-4.26h1.5c0.32,0,0.62,0.03,0.9,0.08c0.28,0.06,0.53,0.15,0.75,0.27
		c0.21,0.12,0.39,0.29,0.51,0.49c0.13,0.2,0.19,0.45,0.19,0.75c0,0.47,0,0.94-0.01,1.42s0,0.94,0.01,1.42c0,0.29,0.03,0.59,0.09,0.9
		c0.06,0.32,0.15,0.61,0.26,0.89c0.23,0.55,0.57,0.96,1.03,1.23s1.07,0.4,1.83,0.4s1.37-0.13,1.83-0.4
		c0.45-0.27,0.79-0.68,1.02-1.23c0.11-0.27,0.2-0.56,0.26-0.88c0.06-0.32,0.09-0.62,0.09-0.91V63.77c0-0.35,0.08-0.63,0.23-0.83
		c0.15-0.2,0.34-0.36,0.58-0.47c0.24-0.11,0.49-0.18,0.78-0.22c0.28-0.04,0.55-0.06,0.82-0.07h1.44v14.81H207v2.97h-3.1
		c-0.08,0.83-0.27,1.59-0.55,2.29c-0.29,0.7-0.71,1.3-1.27,1.81c-0.56,0.51-1.27,0.91-2.14,1.19s-1.94,0.43-3.2,0.43
		c-0.49,0-0.97-0.04-1.46-0.1c-0.48-0.07-0.95-0.17-1.4-0.32c-0.45-0.14-0.87-0.33-1.27-0.55s-0.75-0.49-1.06-0.81
		c-0.31-0.32-0.57-0.68-0.79-1.07c-0.22-0.4-0.39-0.81-0.52-1.23c-0.13-0.42-0.23-0.85-0.29-1.27
		C189.88,79.9,189.85,79.5,189.85,79.13z"/>
	<path class="st26" d="M206.27,76.99h10.24v-3.38c0-0.5-0.04-0.99-0.12-1.46c-0.08-0.47-0.24-0.89-0.49-1.25s-0.58-0.65-1.02-0.87
		c-0.44-0.22-1.01-0.33-1.71-0.33h-2c-0.4-0.01-0.71-0.1-0.93-0.26s-0.39-0.38-0.5-0.63c-0.11-0.26-0.18-0.54-0.21-0.86
		s-0.04-0.63-0.04-0.93v-0.28h3.86c0.94,0,1.76,0.08,2.47,0.24c0.71,0.16,1.33,0.39,1.84,0.69c0.52,0.3,0.95,0.65,1.3,1.06
		c0.35,0.41,0.63,0.87,0.84,1.36c0.21,0.5,0.35,1.02,0.44,1.58c0.08,0.56,0.13,1.13,0.13,1.73v6.57h-14.09V76.99z"/>
	<path class="st26" d="M225.61,62.2h1.49v16.17c0,0.29-0.06,0.54-0.19,0.75s-0.3,0.37-0.51,0.49s-0.46,0.22-0.74,0.27
		c-0.28,0.05-0.58,0.08-0.9,0.08h-1.49v-0.28c0-2.67,0-5.32-0.01-7.95c0-2.63-0.01-5.28-0.01-7.94c0-0.29,0.06-0.54,0.19-0.75
		c0.13-0.2,0.3-0.37,0.51-0.49s0.47-0.22,0.75-0.27S225.29,62.2,225.61,62.2z"/>
	<path class="st26" d="M227.8,84.91c0-0.29,0.02-0.56,0.07-0.82c0.05-0.26,0.14-0.5,0.26-0.7c0.13-0.2,0.3-0.37,0.51-0.5
		s0.49-0.2,0.82-0.22h0.18c0.24,0,0.45-0.07,0.65-0.2c0.2-0.13,0.39-0.3,0.58-0.5c0.14-0.15,0.25-0.31,0.33-0.5
		c0.09-0.19,0.15-0.38,0.2-0.59c0.05-0.21,0.08-0.42,0.1-0.63c0.02-0.22,0.02-0.42,0.02-0.62v-8.68l0.01-0.46
		c0-0.29,0.06-0.54,0.19-0.74c0.13-0.2,0.3-0.37,0.51-0.49c0.21-0.12,0.47-0.21,0.75-0.27c0.29-0.06,0.59-0.09,0.9-0.09h1.5v2.41
		l-0.01,5.69h2.99v2.97h-3c-0.02,0.72-0.12,1.42-0.31,2.1s-0.52,1.27-0.98,1.79c-0.46,0.52-1.08,0.94-1.85,1.25
		c-0.77,0.31-1.75,0.46-2.93,0.46h-1.53V84.91z"/>
	<path class="st26" d="M237.88,79.96v-2.97h3.16v-3.75c0-0.86,0.15-1.62,0.44-2.28s0.7-1.2,1.21-1.65c0.51-0.44,1.12-0.78,1.83-1
		c0.7-0.22,1.47-0.33,2.29-0.33c0.73,0,1.4,0.09,2,0.26c0.6,0.18,1.13,0.42,1.59,0.72c0.46,0.3,0.86,0.67,1.18,1.09
		c0.33,0.42,0.58,0.89,0.76,1.39c0.09,0.24,0.16,0.51,0.21,0.81s0.08,0.59,0.1,0.88s0.03,0.59,0.04,0.88c0,0.29,0.01,0.56,0.01,0.8
		c0,0.62-0.07,1.25-0.21,1.89c-0.07,0.37-0.18,0.72-0.31,1.07c-0.13,0.35-0.31,0.68-0.53,1s-0.48,0.62-0.79,0.9
		c-0.31,0.28-0.66,0.54-1.07,0.76c-0.27,0.15-0.56,0.28-0.88,0.37c-0.32,0.09-0.65,0.17-0.98,0.21c-0.33,0.05-0.67,0.08-1,0.1
		c-0.33,0.02-0.65,0.02-0.94,0.02h-0.11l-2.59-1.2H237.88z M246.82,78.13c0.39-0.02,0.72-0.12,1-0.3c0.27-0.19,0.49-0.43,0.67-0.71
		c0.17-0.29,0.29-0.61,0.37-0.96c0.07-0.35,0.11-0.7,0.11-1.03c0-0.24-0.01-0.51-0.02-0.82c-0.01-0.31-0.04-0.62-0.08-0.94
		c-0.04-0.32-0.1-0.62-0.18-0.9s-0.18-0.52-0.31-0.7c-0.19-0.26-0.41-0.45-0.66-0.57c-0.25-0.12-0.57-0.18-0.94-0.18
		c-0.4,0-0.74,0.07-1.02,0.21c-0.28,0.14-0.51,0.33-0.7,0.57c-0.18,0.24-0.32,0.52-0.4,0.84c-0.08,0.32-0.13,0.67-0.13,1.03v3.42
		L246.82,78.13z"/>
	<path class="st26" d="M260.97,78.43c0.29-0.29,0.62-0.53,0.98-0.72s0.74-0.35,1.14-0.47c0.4-0.12,0.82-0.2,1.25-0.26
		c0.43-0.05,0.87-0.08,1.32-0.08c0.15,0,0.31,0,0.47,0.01c0.16,0.01,0.32,0.01,0.48,0.01c0.01,0,0.02,0,0.05,0s0.06,0,0.1-0.01
		s0.08-0.02,0.12-0.02s0.08-0.02,0.13-0.02c0.03-0.01,0.05-0.01,0.07-0.01c0.02,0,0.05,0,0.07-0.01c-0.24-0.54-0.54-1.04-0.88-1.5
		c-0.35-0.46-0.73-0.89-1.14-1.29c-0.42-0.4-0.86-0.78-1.33-1.13c-0.47-0.35-0.95-0.68-1.43-0.99l-0.11-0.07l-0.38-2.05l0.09-0.09
		c0.86-0.91,1.88-1.62,3.05-2.13c1.17-0.51,2.5-0.79,3.99-0.86h0.39c0.59,0,1.18,0.04,1.76,0.12c0.58,0.08,1.14,0.2,1.68,0.35
		c0.54,0.16,1.06,0.36,1.55,0.61s0.95,0.55,1.37,0.9c0.22,0.18,0.44,0.38,0.65,0.6s0.4,0.46,0.57,0.71c0.17,0.25,0.3,0.51,0.4,0.78
		c0.1,0.27,0.15,0.54,0.15,0.82c0,0.33-0.07,0.65-0.2,0.98c-0.13,0.33-0.31,0.64-0.51,0.95c-0.21,0.31-0.44,0.6-0.68,0.88
		c-0.25,0.28-0.48,0.54-0.7,0.78c-0.59,0.65-1.26,1.25-1.99,1.81h6.45v2.93h-10.55l-0.65-0.46c-0.34,0.11-0.69,0.2-1.06,0.28
		c-0.36,0.08-0.73,0.14-1.09,0.18l-0.04,0.01h-0.05c-0.68,0-1.34,0.04-1.99,0.11c-0.51,0.06-0.89,0.23-1.13,0.51
		c-0.24,0.27-0.37,0.62-0.37,1.04c0,0.2,0.04,0.4,0.12,0.59c0.08,0.19,0.2,0.36,0.35,0.51c0.15,0.15,0.34,0.28,0.55,0.37
		c0.21,0.1,0.44,0.15,0.7,0.17c0.3,0.02,0.6,0.05,0.91,0.07c0.31,0.02,0.61,0.04,0.92,0.06c0.38,0.02,0.68,0.12,0.9,0.28
		s0.38,0.37,0.49,0.62c0.11,0.25,0.18,0.52,0.2,0.82c0.02,0.3,0.04,0.6,0.04,0.9v0.29h-1.97c-0.5,0-0.99-0.03-1.48-0.08
		s-0.96-0.14-1.42-0.27c-0.46-0.13-0.89-0.3-1.3-0.52c-0.41-0.21-0.78-0.49-1.11-0.81c-0.45-0.44-0.78-0.9-0.98-1.39
		c-0.21-0.48-0.31-1-0.31-1.54c0-0.59,0.11-1.16,0.33-1.71C260.13,79.42,260.48,78.9,260.97,78.43z M270.32,75.38
		c0.44-0.33,0.86-0.68,1.26-1.03c0.4-0.35,0.8-0.71,1.2-1.08c0.09-0.09,0.19-0.2,0.3-0.32c0.11-0.12,0.22-0.25,0.32-0.39
		c0.11-0.14,0.19-0.28,0.26-0.42s0.1-0.27,0.1-0.38c0-0.1-0.05-0.21-0.15-0.34c-0.1-0.13-0.19-0.22-0.26-0.28
		c-0.46-0.37-1.01-0.64-1.64-0.81c-0.63-0.17-1.29-0.26-1.98-0.26c-0.63,0-1.21,0.06-1.75,0.19c-0.54,0.13-1.05,0.32-1.54,0.58
		c0.93,0.61,1.7,1.31,2.33,2.1C269.41,73.71,269.92,74.53,270.32,75.38z"/>
	<path class="st26" d="M280.08,76.99c0.5,0,0.92-0.08,1.25-0.24c0.33-0.16,0.58-0.37,0.77-0.64c0.19-0.27,0.32-0.58,0.4-0.92
		c0.08-0.35,0.12-0.71,0.12-1.08v-3.63c0-0.29,0.06-0.54,0.19-0.74s0.3-0.37,0.51-0.49s0.46-0.21,0.75-0.27
		c0.28-0.06,0.58-0.09,0.9-0.09h1.5v5.21c0,0.37,0.04,0.74,0.12,1.09c0.08,0.35,0.21,0.66,0.4,0.92s0.45,0.48,0.78,0.63
		c0.33,0.16,0.74,0.24,1.25,0.24h0.9v2.97h-0.88c-0.48,0-0.91-0.05-1.29-0.17c-0.38-0.11-0.72-0.26-1.01-0.45
		c-0.3-0.19-0.55-0.4-0.77-0.65c-0.22-0.25-0.4-0.51-0.57-0.79c-0.43,0.64-1.01,1.15-1.73,1.51s-1.62,0.54-2.67,0.54h-1.82v-2.97
		H280.08z M280.6,83.42c0-0.2,0.04-0.4,0.11-0.62s0.19-0.42,0.35-0.6c0.16-0.19,0.37-0.34,0.62-0.46s0.56-0.18,0.92-0.18
		c0.29,0,0.55,0.04,0.78,0.13c0.23,0.09,0.42,0.21,0.59,0.35c0.16,0.14,0.29,0.3,0.4,0.48c0.1,0.17,0.17,0.35,0.21,0.53
		c0.04-0.17,0.11-0.35,0.21-0.53s0.23-0.34,0.38-0.48c0.16-0.14,0.35-0.26,0.57-0.35s0.49-0.13,0.79-0.13
		c0.35,0,0.65,0.06,0.91,0.18c0.26,0.12,0.47,0.27,0.63,0.46c0.16,0.18,0.29,0.38,0.37,0.6c0.08,0.22,0.12,0.43,0.12,0.62
		s-0.04,0.4-0.12,0.62c-0.08,0.22-0.21,0.42-0.37,0.6c-0.17,0.18-0.38,0.34-0.63,0.46c-0.26,0.12-0.55,0.18-0.9,0.18
		c-0.29,0-0.55-0.04-0.78-0.13c-0.23-0.09-0.42-0.21-0.58-0.35c-0.16-0.14-0.29-0.3-0.38-0.48s-0.17-0.35-0.21-0.52
		c-0.04,0.18-0.11,0.36-0.21,0.53c-0.1,0.18-0.24,0.33-0.4,0.48s-0.36,0.26-0.59,0.35s-0.48,0.13-0.78,0.13
		c-0.35,0-0.65-0.06-0.9-0.18c-0.25-0.12-0.46-0.28-0.62-0.46s-0.28-0.39-0.36-0.6C280.64,83.82,280.6,83.62,280.6,83.42z"/>
	<path class="st26" d="M289.37,79.96v-2.97h3.16v-3.75c0-0.87,0.15-1.64,0.45-2.29c0.3-0.66,0.71-1.21,1.23-1.65
		c0.52-0.44,1.12-0.77,1.82-0.99c0.7-0.22,1.45-0.33,2.26-0.33c0.72,0,1.39,0.09,1.99,0.26c0.6,0.18,1.14,0.42,1.6,0.72
		c0.46,0.3,0.86,0.67,1.18,1.09c0.33,0.42,0.58,0.89,0.76,1.39c0.09,0.25,0.16,0.52,0.2,0.81c0.04,0.29,0.08,0.58,0.1,0.88
		s0.04,0.59,0.04,0.88c0,0.29,0.01,0.56,0.01,0.8c0,0.34-0.02,0.7-0.06,1.08c-0.04,0.38-0.11,0.74-0.21,1.09h3.33v2.97h-5.21
		c-0.11,0.09-0.23,0.18-0.36,0.26c-0.13,0.08-0.26,0.16-0.4,0.23c-0.27,0.15-0.56,0.28-0.88,0.37c-0.32,0.09-0.65,0.17-0.99,0.21
		s-0.67,0.08-1,0.1c-0.33,0.02-0.64,0.02-0.93,0.02h-0.11l-2.59-1.2H289.37z M298.24,78.2c0.39-0.02,0.72-0.12,1-0.3
		c0.27-0.19,0.49-0.43,0.67-0.71c0.17-0.29,0.29-0.61,0.37-0.96c0.07-0.35,0.11-0.7,0.11-1.03c0-0.24-0.01-0.51-0.02-0.82
		c-0.01-0.31-0.04-0.62-0.08-0.94c-0.04-0.32-0.1-0.62-0.18-0.9s-0.18-0.52-0.31-0.7c-0.19-0.26-0.41-0.45-0.66-0.57
		c-0.25-0.12-0.57-0.18-0.94-0.18c-0.66,0-1.19,0.21-1.59,0.63c-0.26,0.26-0.43,0.57-0.52,0.93c-0.09,0.36-0.13,0.72-0.13,1.09v3.42
		L298.24,78.2z"/>
	<path class="st26" d="M316.85,76.99v-3.38c0-0.47-0.04-0.94-0.12-1.41c-0.08-0.47-0.24-0.89-0.46-1.26
		c-0.23-0.37-0.55-0.67-0.96-0.9c-0.42-0.23-0.96-0.35-1.62-0.35h-2.29c-0.4-0.01-0.71-0.1-0.93-0.26s-0.39-0.38-0.5-0.63
		c-0.11-0.26-0.18-0.54-0.21-0.86s-0.04-0.63-0.04-0.93v-0.28h3.98c0.94,0,1.76,0.08,2.47,0.25c0.71,0.17,1.33,0.4,1.85,0.7
		c0.52,0.3,0.95,0.65,1.3,1.06c0.35,0.41,0.62,0.86,0.83,1.36c0.21,0.49,0.35,1.02,0.44,1.58c0.08,0.56,0.13,1.13,0.13,1.72v6.57
		h-14.09v-2.97H316.85z M311.76,83.46c0-0.2,0.04-0.41,0.12-0.63c0.08-0.23,0.21-0.44,0.37-0.63s0.38-0.35,0.64-0.48
		c0.26-0.13,0.57-0.2,0.94-0.2c0.36,0,0.67,0.06,0.93,0.19s0.48,0.29,0.65,0.48s0.3,0.41,0.38,0.63c0.08,0.23,0.12,0.44,0.12,0.63
		c0,0.2-0.04,0.42-0.13,0.65c-0.08,0.23-0.21,0.44-0.38,0.63c-0.17,0.19-0.39,0.35-0.65,0.48c-0.26,0.13-0.57,0.19-0.93,0.19
		s-0.67-0.06-0.93-0.19c-0.26-0.13-0.48-0.29-0.65-0.48c-0.17-0.2-0.3-0.41-0.38-0.63C311.81,83.87,311.76,83.66,311.76,83.46z"/>
</g>
</svg>
