<?xml version="1.0" encoding="utf-8"?>
<!-- Generator: Adobe Illustrator 27.1.1, SVG Export Plug-In . SVG Version: 6.00 Build 0)  -->
<svg version="1.1" id="Layer_1" xmlns="http://www.w3.org/2000/svg" xmlns:xlink="http://www.w3.org/1999/xlink" x="0px" y="0px"
	 viewBox="0 0 174.31 257.46" style="enable-background:new 0 0 174.31 257.46;" xml:space="preserve">
<style type="text/css">
	.st0{fill:#D4D7EE;stroke:#010202;stroke-miterlimit:10;}
	.st1{fill:#FFFFFF;stroke:#010202;stroke-width:0.75;stroke-miterlimit:10;}
	.st2{fill:#179552;}
	.st3{fill:#C11A22;}
	.st4{fill:#FFFFFF;stroke:#010202;stroke-width:1.4583;stroke-miterlimit:10;}
	.st5{fill:#37AB4D;stroke:#010202;stroke-width:1.1973;stroke-miterlimit:10;}
	.st6{fill:#F7BA16;stroke:#010202;stroke-width:1.1973;stroke-miterlimit:10;}
	.st7{fill:#C11A22;stroke:#010202;stroke-width:1.1973;stroke-miterlimit:10;}
	.st8{fill:#FFFFFF;stroke:#010202;stroke-width:1.1726;stroke-miterlimit:10;}
	.st9{fill:#C11A22;stroke:#010202;stroke-width:1.438;stroke-miterlimit:10;}
	.st10{fill:#37AB4D;stroke:#010202;stroke-width:1.438;stroke-miterlimit:10;}
	.st11{fill:#F7BA16;stroke:#010202;stroke-width:1.438;stroke-miterlimit:10;}
	.st12{fill:#191919;stroke:#191919;stroke-miterlimit:10;}
	.st13{fill:none;stroke:#010202;stroke-width:3;stroke-linecap:round;stroke-linejoin:round;stroke-miterlimit:10;}
	.st14{fill:#C21A21;stroke:#010202;stroke-width:2;stroke-miterlimit:10;}
	.st15{fill:#FFFFFF;}
	.st16{fill:none;stroke:#010202;stroke-width:0.8258;stroke-miterlimit:10;}
	.st17{fill:#F7BA16;stroke:#010202;stroke-width:0.75;stroke-miterlimit:10;}
	.st18{fill:#C11A22;stroke:#010202;stroke-width:0.75;stroke-miterlimit:10;}
	.st19{fill:#FAEA2F;stroke:#010202;stroke-width:0.4937;stroke-miterlimit:10;}
	.st20{fill:#FFFFFF;stroke:#050707;stroke-width:0.4937;stroke-miterlimit:10;}
	.st21{fill:#E63329;stroke:#010202;stroke-width:0.1545;stroke-miterlimit:10;}
	.st22{fill:#37AB4D;stroke:#010202;stroke-width:0.75;stroke-miterlimit:10;}
	.st23{fill:#FCD802;stroke:#010202;stroke-width:1.4349;stroke-miterlimit:10;}
	.st24{fill:#FFFFFF;stroke:#010202;stroke-width:1.4349;stroke-miterlimit:10;}
	.st25{fill:none;stroke:#010202;stroke-width:1.4349;stroke-linecap:round;stroke-linejoin:round;stroke-miterlimit:10;}
	.st26{fill:#010202;}
	.st27{fill:#02A96B;stroke:#010202;stroke-width:0.75;stroke-miterlimit:10;}
	.st28{fill:#F7BA16;stroke:#010202;stroke-width:3.158;stroke-miterlimit:10;}
	.st29{fill:#FFFFFF;stroke:#010202;stroke-width:2.3588;stroke-miterlimit:10;}
	.st30{fill:#C21920;stroke:#010202;stroke-width:2.3588;stroke-miterlimit:10;}
	.st31{fill:#C21A21;stroke:#010202;stroke-width:1.1973;stroke-miterlimit:10;}
	.st32{fill:#70B966;stroke:#010202;stroke-miterlimit:10;}
	.st33{fill:#02A96B;}
	.st34{fill:#FFFFFF;stroke:#010202;stroke-width:2;stroke-miterlimit:10;}
	.st35{fill:#C21920;stroke:#010202;stroke-width:1.4407;stroke-miterlimit:10;}
	.st36{fill:#F8AB16;stroke:#010202;stroke-width:1.4407;stroke-miterlimit:10;}
	.st37{fill:#8E1963;stroke:#010202;stroke-width:1.4407;stroke-miterlimit:10;}
	.st38{fill:#FCD900;stroke:#010202;stroke-width:1.4407;stroke-miterlimit:10;}
	.st39{fill:#FFFFFF;stroke:#010202;stroke-width:1.8498;stroke-miterlimit:10;}
	.st40{fill:#8E1963;}
	.st41{fill:#8E1963;stroke:#010202;stroke-width:1.8764;stroke-miterlimit:10;}
	.st42{fill:#8E1963;stroke:#010202;stroke-width:1.4015;stroke-miterlimit:10;}
	.st43{fill:none;stroke:#010202;stroke-width:1.4015;stroke-linecap:round;stroke-linejoin:round;stroke-miterlimit:10;}
	.st44{fill:#C21920;stroke:#010202;stroke-width:1.8125;stroke-miterlimit:10;}
	.st45{fill:#FFFFFF;stroke:#010202;stroke-width:1.8478;stroke-miterlimit:10;}
	.st46{fill:#C21920;}
	.st47{fill:#F8AB16;stroke:#010202;stroke-width:1.7687;stroke-miterlimit:10;}
	.st48{fill:#F8AB16;}
	.st49{fill:#FCD900;}
	.st50{fill:none;stroke:#010202;stroke-width:1.6344;stroke-miterlimit:10;}
	.st51{fill:#FCD900;stroke:#010202;stroke-width:1.6344;stroke-miterlimit:10;}
	.st52{fill:#FFFFFF;stroke:#010202;stroke-width:0.9824;stroke-miterlimit:10;}
	.st53{fill:#C21920;stroke:#010202;stroke-width:0.4912;stroke-miterlimit:10;}
	.st54{fill:#8E1963;stroke:#010202;stroke-width:0.4912;stroke-miterlimit:10;}
	.st55{fill:#F8AB16;stroke:#010202;stroke-width:0.4912;stroke-miterlimit:10;}
	.st56{fill:#FFFFFF;stroke:#010202;stroke-width:2.0587;stroke-miterlimit:10;}
	.st57{fill:#8E1963;stroke:#010202;stroke-width:2.0883;stroke-miterlimit:10;}
	.st58{fill:#8E1963;stroke:#010202;stroke-width:1.5598;stroke-miterlimit:10;}
	.st59{fill:none;stroke:#010202;stroke-width:1.5598;stroke-linecap:round;stroke-linejoin:round;stroke-miterlimit:10;}
	.st60{fill:#C21920;stroke:#010202;stroke-width:2.0171;stroke-miterlimit:10;}
	.st61{fill:#FFFFFF;stroke:#010202;stroke-width:2.0565;stroke-miterlimit:10;}
	.st62{fill:#F8AB16;stroke:#010202;stroke-width:1.9685;stroke-miterlimit:10;}
	.st63{fill:#C11A22;stroke:#010202;stroke-width:2.0446;stroke-miterlimit:10;}
	.st64{fill:none;stroke:#010202;stroke-width:1.1741;stroke-miterlimit:10;}
	.st65{fill:#F7BA16;stroke:#010202;stroke-width:2.0446;stroke-miterlimit:10;}
	.st66{fill:#37AB4D;stroke:#010202;stroke-width:2.0446;stroke-miterlimit:10;}
	.st67{fill:#FFFFFF;stroke:#010202;stroke-width:1.3431;stroke-miterlimit:10;}
	.st68{fill:#FFFFFF;stroke:#010202;stroke-width:0.6716;stroke-miterlimit:10;}
	.st69{fill:#C21920;stroke:#010202;stroke-width:0.3358;stroke-miterlimit:10;}
	.st70{fill:#C21920;stroke:#010202;stroke-width:1.3431;stroke-miterlimit:10;}
	.st71{fill:#FFFFFF;stroke:#010202;stroke-width:1.3076;stroke-miterlimit:10;}
	.st72{fill:#C21920;stroke:#010202;stroke-width:1.3863;stroke-miterlimit:10;}
	.st73{fill:#FFFFFF;stroke:#010202;stroke-width:1.4948;stroke-miterlimit:10;}
	.st74{fill:#FFFFFF;stroke:#010202;stroke-width:0.7474;stroke-miterlimit:10;}
	.st75{fill:#C21920;stroke:#010202;stroke-width:0.3737;stroke-miterlimit:10;}
	.st76{fill:#C21920;stroke:#010202;stroke-width:1.4662;stroke-miterlimit:10;}
	.st77{fill:#F8AB16;stroke:#010202;stroke-width:0.3791;stroke-miterlimit:10;}
	.st78{fill:#F8AB16;stroke:#010202;stroke-width:1.4308;stroke-miterlimit:10;}
	.st79{fill:none;stroke:#010202;stroke-width:1.3222;stroke-miterlimit:10;}
	.st80{fill:#FCD900;stroke:#010202;stroke-width:0.3791;stroke-miterlimit:10;}
	.st81{fill:#FCD900;stroke:#010202;stroke-width:1.3222;stroke-miterlimit:10;}
	.st82{fill:#8E1963;stroke:#010202;stroke-width:0.3791;stroke-miterlimit:10;}
	.st83{fill:#8E1963;stroke:#010202;stroke-width:1.5163;stroke-miterlimit:10;}
	.st84{fill:#8E1963;stroke:#010202;stroke-width:1.1325;stroke-miterlimit:10;}
	.st85{fill:none;stroke:#010202;stroke-width:1.1325;stroke-linecap:round;stroke-linejoin:round;stroke-miterlimit:10;}
	.st86{fill:#FFFFFF;stroke:#010202;stroke-width:1.4206;stroke-miterlimit:10;}
	.st87{fill:#FFFFFF;stroke:#010202;stroke-width:0.7103;stroke-miterlimit:10;}
	.st88{fill:#C21920;stroke:#010202;stroke-width:0.3551;stroke-miterlimit:10;}
	.st89{fill:#C21920;stroke:#010202;stroke-width:1.4206;stroke-miterlimit:10;}
	.st90{fill:#FFFFFF;stroke:#010202;stroke-width:1.383;stroke-miterlimit:10;}
	.st91{fill:#FAEA2F;stroke:#010202;stroke-width:0.3551;stroke-miterlimit:10;}
	.st92{fill:#F8AB16;stroke:#010202;stroke-width:1.4205;stroke-miterlimit:10;}
	.st93{fill:#8E1963;stroke:#010202;stroke-width:1.6044;stroke-miterlimit:10;}
	.st94{fill:none;stroke:#010202;stroke-width:1.6044;stroke-linecap:round;stroke-linejoin:round;stroke-miterlimit:10;}
	.st95{fill:#FCD900;stroke:#010202;stroke-width:1.6789;stroke-miterlimit:10;}
	.st96{fill:#37AB4D;stroke:#010202;stroke-width:2;stroke-miterlimit:10;}
	.st97{fill:#C21920;stroke:#010202;stroke-width:1.7323;stroke-miterlimit:10;}
	.st98{fill:none;stroke:#C21A21;stroke-width:3.8955;stroke-linecap:round;stroke-linejoin:round;stroke-miterlimit:10;}
	.st99{fill:#333333;}
	.st100{fill:#FCD901;stroke:#010202;stroke-width:1.3419;stroke-miterlimit:10;}
	.st101{fill:#8E1963;stroke:#010202;stroke-width:1.216;stroke-miterlimit:10;}
	.st102{fill:none;stroke:#010202;stroke-width:1.216;stroke-linecap:round;stroke-linejoin:round;stroke-miterlimit:10;}
	.st103{fill:#F8AB16;stroke:#010202;stroke-width:1.5252;stroke-miterlimit:10;}
	.st104{opacity:0.52;fill:#7A8084;}
	.st105{fill:#2856A2;stroke:#010202;stroke-width:0.8146;stroke-miterlimit:10;}
	.st106{fill:#FFFFFF;stroke:#010202;stroke-width:0.3123;stroke-miterlimit:10;}
	.st107{fill:#FFFFFF;stroke:#010202;stroke-width:0.0923;stroke-miterlimit:10;}
	.st108{fill:#F7BA16;stroke:#010202;stroke-width:0.0612;stroke-miterlimit:10;}
	.st109{fill:#E63329;stroke:#010202;stroke-width:0.0612;stroke-miterlimit:10;}
	.st110{fill:#37AB4D;stroke:#010202;stroke-width:0.0612;stroke-miterlimit:10;}
	.st111{fill:#FFFFFF;stroke:#010202;stroke-width:0.0764;stroke-miterlimit:10;}
	.st112{fill:#F7BA16;stroke:#010202;stroke-width:0.0506;stroke-miterlimit:10;}
	.st113{fill:#E63329;stroke:#010202;stroke-width:0.0506;stroke-miterlimit:10;}
	.st114{fill:#37AB4D;stroke:#010202;stroke-width:0.0506;stroke-miterlimit:10;}
	.st115{fill:#179552;stroke:#010202;stroke-width:0.8326;stroke-miterlimit:10;}
	.st116{fill:#F7BA16;stroke:#010202;stroke-width:0.8146;stroke-miterlimit:10;}
	.st117{fill:#FFFFFF;stroke:#010202;stroke-width:0.4197;stroke-miterlimit:10;}
	.st118{fill:#E73836;stroke:#010202;stroke-width:0.1809;stroke-miterlimit:10;}
	.st119{fill:#D4D7EE;stroke:#010202;stroke-width:1.001;stroke-miterlimit:10;}
	.st120{fill:#FFFFFF;stroke:#010202;stroke-width:1.1881;stroke-miterlimit:10;}
	.st121{fill:#FFFFFF;stroke:#191919;stroke-width:0.9977;stroke-miterlimit:10;}
	.st122{fill:#C11A21;}
	.st123{fill:#2957A2;}
	.st124{fill:#D4D7EE;stroke:#010202;stroke-width:0.8539;stroke-miterlimit:10;}
	.st125{fill:#F7BA16;stroke:#010202;stroke-width:2.0392;stroke-miterlimit:10;}
	.st126{fill:none;stroke:#010202;stroke-width:1.171;stroke-miterlimit:10;}
	.st127{fill:#F7BA16;stroke:#010202;stroke-width:0.748;stroke-miterlimit:10;}
	.st128{fill:none;stroke:#010202;stroke-width:0.4027;stroke-miterlimit:10;}
	.st129{fill:#C11A22;stroke:#010202;stroke-width:0.3652;stroke-miterlimit:10;}
	.st130{fill:#C11A22;stroke:#010202;stroke-width:0.7033;stroke-miterlimit:10;}
</style>
<g>
	<g>
		<g>
			<g>
				<g>
					<g>
						<path class="st73" d="M100.48,141.58c0,0,7.25,6.49,8.4,27.48c0,0,4.38,3.8,7.01-2.54c0.87-2.1,1.1-4.41,0.77-6.66
							C115.9,154.8,112.82,145.28,100.48,141.58z"/>
						<path class="st73" d="M75.77,141.58c0,0-7.25,6.49-8.4,27.48c0,0-4.38,3.8-7.01-2.54c-0.87-2.1-1.1-4.41-0.77-6.66
							C60.35,154.8,63.43,145.28,75.77,141.58z"/>
					</g>
					<g>
						<path class="st73" d="M76.25,141.51c0,0-9.59,3.7-8.62,26.71c0.15,3.53,1.68,7.5,3.98,10.18c3.68,4.29,7.88,4.77,13.23,0.95
							c0,0,3.19-4.52,6.88-1c0,0,11.93,5.37,16.55-3.43c0.36-0.69,0.81-1.89,0.93-3.02c0.15-1.44,0.33-2.15,0.01-3.07
							c-0.12-0.33-0.05-1.19-0.02-1.61c0.48-6.26,0.37-19.46-9.2-25.94L76.25,141.51z"/>
					</g>
				</g>
				<g>
					<polygon class="st74" points="108.63,156.04 68.12,156.04 69.12,151.53 107.48,151.53 					"/>
					<polygon class="st82" points="70.74,151.49 75.96,151.49 77.51,156.04 69.19,156.04 					"/>
					<polygon class="st82" points="80.62,151.49 85.85,151.49 87.4,156.04 79.07,156.04 					"/>
					<polygon class="st82" points="90.55,151.49 95.78,151.49 97.33,156.04 89,156.04 					"/>
					<polygon class="st82" points="100.72,151.49 105.95,151.49 107.49,156.04 99.17,156.04 					"/>
				</g>
				<g>
					<polygon class="st74" points="108.48,169.48 68.12,169.48 68.12,164.97 108.63,164.97 					"/>
					<polygon class="st82" points="70.74,164.93 75.96,164.93 77.51,169.48 69.19,169.48 					"/>
					<polygon class="st82" points="80.62,164.93 85.85,164.93 87.4,169.48 79.07,169.48 					"/>
					<polygon class="st82" points="90.55,164.93 95.78,164.93 97.33,169.48 89,169.48 					"/>
					<polygon class="st82" points="100.72,164.93 105.95,164.93 107.49,169.48 99.17,169.48 					"/>
				</g>
			</g>
		</g>
		<path class="st73" d="M69.41,174.51c0,0,6.47,5.16,17.16,3.51l-0.15,14.06c-0.04,3.83-2.65,7.18-6.37,8.09
			c-0.59,0.15-1.21,0.26-1.85,0.33c-4.91,0.5-9.1-3.6-9.03-8.53L69.41,174.51z"/>
		<path class="st40" d="M78.64,199.76c-0.07,0.01-0.13,0.01-0.2,0.02c-4.42,0.52-8.54-2.81-8.52-7.77l0-0.31l15.76,0.05l-0.01,0.47
			C85.66,196.23,82.62,199.27,78.64,199.76z"/>
		<path class="st73" d="M108.33,174.51c0,0-6.47,5.16-17.16,3.51l0.15,14.06c0.04,3.83,2.65,7.18,6.37,8.09
			c0.59,0.15,1.21,0.26,1.85,0.33c4.91,0.5,9.1-3.6,9.03-8.53L108.33,174.51z"/>
		<path class="st40" d="M99.1,199.76c0.07,0.01,0.13,0.01,0.2,0.02c4.42,0.52,8.54-2.81,8.52-7.77l0-0.31l-15.76,0.05l0.01,0.47
			C92.07,196.23,95.11,199.27,99.1,199.76z"/>
		<path class="st40" d="M110.07,165.04c0,0-0.38,2.92-0.11,3.86c0,0,2.49,1.63,4.15-0.74c0,0,1.22-1.65,1.58-3.51
			C115.7,164.66,112.18,164.48,110.07,165.04z"/>
		<path class="st40" d="M66.82,164.75c0,0,0.13,3.01-0.14,3.96c0,0-2.78,2.02-4.57-0.53c0,0-1.33-1.78-1.6-3.69
			C60.52,164.49,64.71,164.19,66.82,164.75z"/>
	</g>
	<g>
		<g>
			<path class="st73" d="M130.32,110.28c-0.28,5.17-1.79,10.75-5.06,16.44c0,0-5.58,11.35-20.4,14.44
				c-0.65,0.13-1.33,0.19-1.99,0.19H74.78c-1.13,0-2.26-0.18-3.33-0.56c-2.93-1.04-9.08-3.56-14.46-8.02
				c-5.09-4.23-8.35-10.27-9.45-16.79c-0.58-3.4-0.91-7.63-0.32-12.08c0.16-1.24,0.4-2.51,0.72-3.78c1.03-4.06,2.93-8.15,6.22-11.85
				c3.8-4.29,8.9-7.19,14.42-8.71c7.92-2.18,23.02-5.01,38.9-0.95c6.02,1.55,11.52,4.77,15.59,9.46c2.49,2.86,4.68,6.71,5.99,11.24
				C130.05,102.64,130.54,106.35,130.32,110.28z"/>
			<g>
				<ellipse class="st26" cx="102.11" cy="106.18" rx="4.72" ry="7.17"/>
				<ellipse class="st26" cx="76.56" cy="106.18" rx="4.72" ry="7.17"/>
			</g>
			<g>
				<ellipse class="st40" cx="107.74" cy="120.92" rx="4.67" ry="2.11"/>
				<ellipse class="st40" cx="70.93" cy="120.92" rx="4.67" ry="2.11"/>
			</g>
			<path class="st83" d="M91.16,131c0,0-6.7,0.4-5.89-4.66c0.02-0.1,0.1-0.17,0.2-0.17h10.05C95.52,126.16,96.36,130.7,91.16,131z"
				/>
		</g>
	</g>
	<g>
		<g>
			<path class="st84" d="M135.57,115.13c0,0-0.89,4.57-5.26,6.1c-2.97,1.05-6.34,0.25-8.56-1.99c-2.06-2.07-3.83-5.76-1.95-12.1
				c0,0,4.27-13.64,23.36-17.37c1.3-0.25,2.64-0.27,3.93,0.04c1.74,0.43,3.65,1.5,3.29,4.16c-0.14,1.07-0.66,2.06-1.4,2.85
				c-0.92,0.98-2.43,2.46-3.95,3.28c0,0,5.38,0.93,2.78,5.93c0,0-1.49,2.51-3.89,3.34c0,0,2.37,2.2,0.16,4.35
				c-0.69,0.67-1.59,1.08-2.54,1.25C140.19,115.21,137.8,115.5,135.57,115.13z"/>
			<path class="st85" d="M127.05,114.02c0,0-1.7-3.97,2.09-4.47c1.29-0.17,2.6,0.15,3.72,0.81c1.39,0.82,3.05,2.33,2.72,4.77"/>
			<path class="st85" d="M139.61,101.57c0,0,4.14-0.59,5.42-1.46"/>
			<path class="st85" d="M140.39,109.01c0,0,2.04,0.93,3.52,0.37"/>
		</g>
		<g>
			<path class="st84" d="M42.95,114.74c0,0,0.89,4.57,5.26,6.1c2.97,1.05,6.34,0.25,8.56-1.99c2.06-2.07,3.83-5.76,1.95-12.1
				c0,0-4.27-13.64-23.36-17.37c-1.3-0.25-2.64-0.27-3.93,0.04c-1.74,0.43-3.65,1.5-3.29,4.16c0.14,1.07,0.66,2.06,1.4,2.85
				c0.92,0.98,2.43,2.46,3.95,3.28c0,0-5.38,0.93-2.78,5.93c0,0,1.49,2.51,3.89,3.34c0,0-2.37,2.2-0.16,4.35
				c0.69,0.67,1.59,1.08,2.54,1.25C38.33,114.82,40.72,115.11,42.95,114.74z"/>
			<path class="st85" d="M51.48,113.63c0,0,1.7-3.97-2.09-4.47c-1.29-0.17-2.6,0.15-3.72,0.81c-1.39,0.82-3.05,2.33-2.72,4.77"/>
			<path class="st85" d="M38.92,101.19c0,0-4.14-0.59-5.42-1.46"/>
			<path class="st85" d="M38.13,108.62c0,0-2.04,0.93-3.52,0.37"/>
		</g>
	</g>
</g>
</svg>
