<?xml version="1.0" encoding="utf-8"?>
<!-- Generator: Adobe Illustrator 27.1.1, SVG Export Plug-In . SVG Version: 6.00 Build 0)  -->
<svg version="1.1" id="Layer_1" xmlns="http://www.w3.org/2000/svg" xmlns:xlink="http://www.w3.org/1999/xlink" x="0px" y="0px"
	 viewBox="0 0 174.31 257.46" style="enable-background:new 0 0 174.31 257.46;" xml:space="preserve">
<style type="text/css">
	.st0{fill:#D4D7EE;stroke:#010202;stroke-miterlimit:10;}
	.st1{fill:#FFFFFF;stroke:#010202;stroke-width:0.75;stroke-miterlimit:10;}
	.st2{fill:#179552;}
	.st3{fill:#C11A22;}
	.st4{fill:#FFFFFF;stroke:#010202;stroke-width:1.4583;stroke-miterlimit:10;}
	.st5{fill:#37AB4D;stroke:#010202;stroke-width:1.1973;stroke-miterlimit:10;}
	.st6{fill:#F7BA16;stroke:#010202;stroke-width:1.1973;stroke-miterlimit:10;}
	.st7{fill:#C11A22;stroke:#010202;stroke-width:1.1973;stroke-miterlimit:10;}
	.st8{fill:#FFFFFF;stroke:#010202;stroke-width:1.1726;stroke-miterlimit:10;}
	.st9{fill:#C11A22;stroke:#010202;stroke-width:1.438;stroke-miterlimit:10;}
	.st10{fill:#37AB4D;stroke:#010202;stroke-width:1.438;stroke-miterlimit:10;}
	.st11{fill:#F7BA16;stroke:#010202;stroke-width:1.438;stroke-miterlimit:10;}
	.st12{fill:#191919;stroke:#191919;stroke-miterlimit:10;}
	.st13{fill:none;stroke:#010202;stroke-width:3;stroke-linecap:round;stroke-linejoin:round;stroke-miterlimit:10;}
	.st14{fill:#C21A21;stroke:#010202;stroke-width:2;stroke-miterlimit:10;}
	.st15{fill:#FFFFFF;}
	.st16{fill:none;stroke:#010202;stroke-width:0.8258;stroke-miterlimit:10;}
	.st17{fill:#F7BA16;stroke:#010202;stroke-width:0.75;stroke-miterlimit:10;}
	.st18{fill:#C11A22;stroke:#010202;stroke-width:0.75;stroke-miterlimit:10;}
	.st19{fill:#FAEA2F;stroke:#010202;stroke-width:0.4937;stroke-miterlimit:10;}
	.st20{fill:#FFFFFF;stroke:#050707;stroke-width:0.4937;stroke-miterlimit:10;}
	.st21{fill:#E63329;stroke:#010202;stroke-width:0.1545;stroke-miterlimit:10;}
	.st22{fill:#37AB4D;stroke:#010202;stroke-width:0.75;stroke-miterlimit:10;}
	.st23{fill:#FCD802;stroke:#010202;stroke-width:1.4349;stroke-miterlimit:10;}
	.st24{fill:#FFFFFF;stroke:#010202;stroke-width:1.4349;stroke-miterlimit:10;}
	.st25{fill:none;stroke:#010202;stroke-width:1.4349;stroke-linecap:round;stroke-linejoin:round;stroke-miterlimit:10;}
	.st26{fill:#010202;}
	.st27{fill:#02A96B;stroke:#010202;stroke-width:0.75;stroke-miterlimit:10;}
	.st28{fill:#F7BA16;stroke:#010202;stroke-width:3.158;stroke-miterlimit:10;}
	.st29{fill:#FFFFFF;stroke:#010202;stroke-width:2.3588;stroke-miterlimit:10;}
	.st30{fill:#C21920;stroke:#010202;stroke-width:2.3588;stroke-miterlimit:10;}
	.st31{fill:#C21A21;stroke:#010202;stroke-width:1.1973;stroke-miterlimit:10;}
	.st32{fill:#70B966;stroke:#010202;stroke-miterlimit:10;}
	.st33{fill:#02A96B;}
	.st34{fill:#FFFFFF;stroke:#010202;stroke-width:2;stroke-miterlimit:10;}
	.st35{fill:#C21920;stroke:#010202;stroke-width:1.4407;stroke-miterlimit:10;}
	.st36{fill:#F8AB16;stroke:#010202;stroke-width:1.4407;stroke-miterlimit:10;}
	.st37{fill:#8E1963;stroke:#010202;stroke-width:1.4407;stroke-miterlimit:10;}
	.st38{fill:#FCD900;stroke:#010202;stroke-width:1.4407;stroke-miterlimit:10;}
	.st39{fill:#FFFFFF;stroke:#010202;stroke-width:1.8498;stroke-miterlimit:10;}
	.st40{fill:#8E1963;}
	.st41{fill:#8E1963;stroke:#010202;stroke-width:1.8764;stroke-miterlimit:10;}
	.st42{fill:#8E1963;stroke:#010202;stroke-width:1.4015;stroke-miterlimit:10;}
	.st43{fill:none;stroke:#010202;stroke-width:1.4015;stroke-linecap:round;stroke-linejoin:round;stroke-miterlimit:10;}
	.st44{fill:#C21920;stroke:#010202;stroke-width:1.8125;stroke-miterlimit:10;}
	.st45{fill:#FFFFFF;stroke:#010202;stroke-width:1.8478;stroke-miterlimit:10;}
	.st46{fill:#C21920;}
	.st47{fill:#F8AB16;stroke:#010202;stroke-width:1.7687;stroke-miterlimit:10;}
	.st48{fill:#F8AB16;}
	.st49{fill:#FCD900;}
	.st50{fill:none;stroke:#010202;stroke-width:1.6344;stroke-miterlimit:10;}
	.st51{fill:#FCD900;stroke:#010202;stroke-width:1.6344;stroke-miterlimit:10;}
	.st52{fill:#FFFFFF;stroke:#010202;stroke-width:0.9824;stroke-miterlimit:10;}
	.st53{fill:#C21920;stroke:#010202;stroke-width:0.4912;stroke-miterlimit:10;}
	.st54{fill:#8E1963;stroke:#010202;stroke-width:0.4912;stroke-miterlimit:10;}
	.st55{fill:#F8AB16;stroke:#010202;stroke-width:0.4912;stroke-miterlimit:10;}
	.st56{fill:#FFFFFF;stroke:#010202;stroke-width:2.0587;stroke-miterlimit:10;}
	.st57{fill:#8E1963;stroke:#010202;stroke-width:2.0883;stroke-miterlimit:10;}
	.st58{fill:#8E1963;stroke:#010202;stroke-width:1.5598;stroke-miterlimit:10;}
	.st59{fill:none;stroke:#010202;stroke-width:1.5598;stroke-linecap:round;stroke-linejoin:round;stroke-miterlimit:10;}
	.st60{fill:#C21920;stroke:#010202;stroke-width:2.0171;stroke-miterlimit:10;}
	.st61{fill:#FFFFFF;stroke:#010202;stroke-width:2.0565;stroke-miterlimit:10;}
	.st62{fill:#F8AB16;stroke:#010202;stroke-width:1.9685;stroke-miterlimit:10;}
	.st63{fill:#C11A22;stroke:#010202;stroke-width:2.0446;stroke-miterlimit:10;}
	.st64{fill:none;stroke:#010202;stroke-width:1.1741;stroke-miterlimit:10;}
	.st65{fill:#F7BA16;stroke:#010202;stroke-width:2.0446;stroke-miterlimit:10;}
	.st66{fill:#37AB4D;stroke:#010202;stroke-width:2.0446;stroke-miterlimit:10;}
	.st67{fill:#FFFFFF;stroke:#010202;stroke-width:1.3431;stroke-miterlimit:10;}
	.st68{fill:#FFFFFF;stroke:#010202;stroke-width:0.6716;stroke-miterlimit:10;}
	.st69{fill:#C21920;stroke:#010202;stroke-width:0.3358;stroke-miterlimit:10;}
	.st70{fill:#C21920;stroke:#010202;stroke-width:1.3431;stroke-miterlimit:10;}
	.st71{fill:#FFFFFF;stroke:#010202;stroke-width:1.3076;stroke-miterlimit:10;}
	.st72{fill:#C21920;stroke:#010202;stroke-width:1.3863;stroke-miterlimit:10;}
	.st73{fill:#FFFFFF;stroke:#010202;stroke-width:1.4948;stroke-miterlimit:10;}
	.st74{fill:#FFFFFF;stroke:#010202;stroke-width:0.7474;stroke-miterlimit:10;}
	.st75{fill:#C21920;stroke:#010202;stroke-width:0.3737;stroke-miterlimit:10;}
	.st76{fill:#C21920;stroke:#010202;stroke-width:1.4662;stroke-miterlimit:10;}
	.st77{fill:#F8AB16;stroke:#010202;stroke-width:0.3791;stroke-miterlimit:10;}
	.st78{fill:#F8AB16;stroke:#010202;stroke-width:1.4308;stroke-miterlimit:10;}
	.st79{fill:none;stroke:#010202;stroke-width:1.3222;stroke-miterlimit:10;}
	.st80{fill:#FCD900;stroke:#010202;stroke-width:0.3791;stroke-miterlimit:10;}
	.st81{fill:#FCD900;stroke:#010202;stroke-width:1.3222;stroke-miterlimit:10;}
	.st82{fill:#8E1963;stroke:#010202;stroke-width:0.3791;stroke-miterlimit:10;}
	.st83{fill:#8E1963;stroke:#010202;stroke-width:1.5163;stroke-miterlimit:10;}
	.st84{fill:#8E1963;stroke:#010202;stroke-width:1.1325;stroke-miterlimit:10;}
	.st85{fill:none;stroke:#010202;stroke-width:1.1325;stroke-linecap:round;stroke-linejoin:round;stroke-miterlimit:10;}
	.st86{fill:#FFFFFF;stroke:#010202;stroke-width:1.4206;stroke-miterlimit:10;}
	.st87{fill:#FFFFFF;stroke:#010202;stroke-width:0.7103;stroke-miterlimit:10;}
	.st88{fill:#C21920;stroke:#010202;stroke-width:0.3551;stroke-miterlimit:10;}
	.st89{fill:#C21920;stroke:#010202;stroke-width:1.4206;stroke-miterlimit:10;}
	.st90{fill:#FFFFFF;stroke:#010202;stroke-width:1.383;stroke-miterlimit:10;}
	.st91{fill:#FAEA2F;stroke:#010202;stroke-width:0.3551;stroke-miterlimit:10;}
	.st92{fill:#F8AB16;stroke:#010202;stroke-width:1.4205;stroke-miterlimit:10;}
	.st93{fill:#8E1963;stroke:#010202;stroke-width:1.6044;stroke-miterlimit:10;}
	.st94{fill:none;stroke:#010202;stroke-width:1.6044;stroke-linecap:round;stroke-linejoin:round;stroke-miterlimit:10;}
	.st95{fill:#FCD900;stroke:#010202;stroke-width:1.6789;stroke-miterlimit:10;}
	.st96{fill:#37AB4D;stroke:#010202;stroke-width:2;stroke-miterlimit:10;}
	.st97{fill:#C21920;stroke:#010202;stroke-width:1.7323;stroke-miterlimit:10;}
	.st98{fill:none;stroke:#C21A21;stroke-width:3.8955;stroke-linecap:round;stroke-linejoin:round;stroke-miterlimit:10;}
	.st99{fill:#333333;}
	.st100{fill:#FCD901;stroke:#010202;stroke-width:1.3419;stroke-miterlimit:10;}
	.st101{fill:#8E1963;stroke:#010202;stroke-width:1.216;stroke-miterlimit:10;}
	.st102{fill:none;stroke:#010202;stroke-width:1.216;stroke-linecap:round;stroke-linejoin:round;stroke-miterlimit:10;}
	.st103{fill:#F8AB16;stroke:#010202;stroke-width:1.5252;stroke-miterlimit:10;}
	.st104{opacity:0.52;fill:#7A8084;}
	.st105{fill:#2856A2;stroke:#010202;stroke-width:0.8146;stroke-miterlimit:10;}
	.st106{fill:#FFFFFF;stroke:#010202;stroke-width:0.3123;stroke-miterlimit:10;}
	.st107{fill:#FFFFFF;stroke:#010202;stroke-width:0.0923;stroke-miterlimit:10;}
	.st108{fill:#F7BA16;stroke:#010202;stroke-width:0.0612;stroke-miterlimit:10;}
	.st109{fill:#E63329;stroke:#010202;stroke-width:0.0612;stroke-miterlimit:10;}
	.st110{fill:#37AB4D;stroke:#010202;stroke-width:0.0612;stroke-miterlimit:10;}
	.st111{fill:#FFFFFF;stroke:#010202;stroke-width:0.0764;stroke-miterlimit:10;}
	.st112{fill:#F7BA16;stroke:#010202;stroke-width:0.0506;stroke-miterlimit:10;}
	.st113{fill:#E63329;stroke:#010202;stroke-width:0.0506;stroke-miterlimit:10;}
	.st114{fill:#37AB4D;stroke:#010202;stroke-width:0.0506;stroke-miterlimit:10;}
	.st115{fill:#179552;stroke:#010202;stroke-width:0.8326;stroke-miterlimit:10;}
	.st116{fill:#F7BA16;stroke:#010202;stroke-width:0.8146;stroke-miterlimit:10;}
	.st117{fill:#FFFFFF;stroke:#010202;stroke-width:0.4197;stroke-miterlimit:10;}
	.st118{fill:#E73836;stroke:#010202;stroke-width:0.1809;stroke-miterlimit:10;}
	.st119{fill:#D4D7EE;stroke:#010202;stroke-width:1.001;stroke-miterlimit:10;}
	.st120{fill:#FFFFFF;stroke:#010202;stroke-width:1.1881;stroke-miterlimit:10;}
	.st121{fill:#FFFFFF;stroke:#191919;stroke-width:0.9977;stroke-miterlimit:10;}
	.st122{fill:#C11A21;}
	.st123{fill:#2957A2;}
	.st124{fill:#D4D7EE;stroke:#010202;stroke-width:0.8539;stroke-miterlimit:10;}
	.st125{fill:#F7BA16;stroke:#010202;stroke-width:2.0392;stroke-miterlimit:10;}
	.st126{fill:none;stroke:#010202;stroke-width:1.171;stroke-miterlimit:10;}
	.st127{fill:#F7BA16;stroke:#010202;stroke-width:0.748;stroke-miterlimit:10;}
	.st128{fill:none;stroke:#010202;stroke-width:0.4027;stroke-miterlimit:10;}
	.st129{fill:#C11A22;stroke:#010202;stroke-width:0.3652;stroke-miterlimit:10;}
	.st130{fill:#C11A22;stroke:#010202;stroke-width:0.7033;stroke-miterlimit:10;}
</style>
<g>
	<g>
		<g>
			<g>
				<g>
					<path class="st49" d="M54.64,89.95l-8.53-3.4c-0.52-0.21-1.08,0.21-1.02,0.77l1.55,14.65c0.06,0.56-0.51,0.99-1.03,0.77
						l-3.97-1.64c-0.61-0.25-1.22,0.35-0.98,0.96l8.31,21.59c0.3,0.78,1.46,0.55,1.45-0.28l-0.2-10.62
						c-0.01-0.54,0.53-0.91,1.03-0.71l2.92,1.17c0.49,0.2,1.03-0.17,1.03-0.7l-0.08-21.87C55.11,90.34,54.92,90.07,54.64,89.95z"/>
					<path class="st79" d="M54.64,89.95l-8.53-3.4c-0.52-0.21-1.08,0.21-1.02,0.77l1.55,14.65c0.06,0.56-0.51,0.99-1.03,0.77
						l-3.97-1.64c-0.61-0.25-1.22,0.35-0.98,0.96l8.31,21.59c0.3,0.78,1.46,0.55,1.45-0.28l-0.2-10.62
						c-0.01-0.54,0.53-0.91,1.03-0.71l2.92,1.17c0.49,0.2,1.03-0.17,1.03-0.7l-0.08-21.87C55.11,90.34,54.92,90.07,54.64,89.95z"/>
				</g>
			</g>
			<g>
				<g>
					<path class="st49" d="M134.91,89.95l8.53-3.4c0.52-0.21,1.08,0.21,1.02,0.77l-1.55,14.65c-0.06,0.56,0.51,0.99,1.03,0.77
						l3.97-1.64c0.61-0.25,1.22,0.35,0.98,0.96l-8.31,21.59c-0.3,0.78-1.46,0.55-1.45-0.28l0.2-10.62c0.01-0.54-0.53-0.91-1.03-0.71
						l-2.92,1.17c-0.49,0.2-1.03-0.17-1.03-0.7l0.08-21.87C134.44,90.34,134.63,90.07,134.91,89.95z"/>
					<path class="st79" d="M134.91,89.95l8.53-3.4c0.52-0.21,1.08,0.21,1.02,0.77l-1.55,14.65c-0.06,0.56,0.51,0.99,1.03,0.77
						l3.97-1.64c0.61-0.25,1.22,0.35,0.98,0.96l-8.31,21.59c-0.3,0.78-1.46,0.55-1.45-0.28l0.2-10.62c0.01-0.54-0.53-0.91-1.03-0.71
						l-2.92,1.17c-0.49,0.2-1.03-0.17-1.03-0.7l0.08-21.87C134.44,90.34,134.63,90.07,134.91,89.95z"/>
				</g>
			</g>
		</g>
	</g>
	<g>
		<g>
			<g>
				<g>
					<g>
						<path class="st73" d="M108.24,134.03c0,0,7.25,6.49,8.4,27.48c0,0,4.38,3.8,7.01-2.54c0.87-2.1,1.1-4.41,0.77-6.66
							C123.66,147.25,120.59,137.73,108.24,134.03z"/>
						<path class="st73" d="M83.54,134.03c0,0-7.25,6.49-8.4,27.48c0,0-4.38,3.8-7.01-2.54c-0.87-2.1-1.1-4.41-0.77-6.66
							C68.11,147.25,71.19,137.73,83.54,134.03z"/>
					</g>
					<g>
						<path class="st73" d="M84.02,133.96c0,0-9.59,3.7-8.62,26.71c0.15,3.53,1.68,7.5,3.98,10.18c3.68,4.29,7.88,4.77,13.23,0.95
							c0,0,3.19-4.52,6.88-1c0,0,11.93,5.37,16.55-3.43c0.36-0.69,0.81-1.89,0.93-3.02c0.15-1.44,0.33-2.15,0.01-3.07
							c-0.12-0.33-0.05-1.19-0.02-1.61c0.48-6.26,0.37-19.46-9.2-25.94L84.02,133.96z"/>
					</g>
				</g>
				<g>
					<polygon class="st74" points="116.39,148.5 75.88,148.5 76.89,143.98 115.24,143.98 					"/>
					<polygon class="st80" points="78.5,143.95 83.72,143.95 85.27,148.5 76.95,148.5 					"/>
					<polygon class="st80" points="88.38,143.95 93.61,143.95 95.16,148.5 86.83,148.5 					"/>
					<polygon class="st80" points="98.32,143.95 103.54,143.95 105.09,148.5 96.77,148.5 					"/>
					<polygon class="st80" points="108.48,143.95 113.71,143.95 115.26,148.5 106.93,148.5 					"/>
				</g>
				<g>
					<polygon class="st74" points="116.24,161.93 75.88,161.93 75.88,157.42 116.39,157.42 					"/>
					<polygon class="st80" points="78.5,157.38 83.72,157.38 85.27,161.93 76.95,161.93 					"/>
					<polygon class="st80" points="88.38,157.38 93.61,157.38 95.16,161.93 86.83,161.93 					"/>
					<polygon class="st80" points="98.32,157.38 103.54,157.38 105.09,161.93 96.77,161.93 					"/>
					<polygon class="st80" points="108.48,157.38 113.71,157.38 115.26,161.93 106.93,161.93 					"/>
				</g>
			</g>
		</g>
		<path class="st73" d="M77.17,166.96c0,0,6.47,5.16,17.16,3.51l-0.15,14.06c-0.04,3.83-2.65,7.18-6.37,8.09
			c-0.59,0.15-1.21,0.26-1.85,0.33c-4.91,0.5-9.1-3.6-9.03-8.53L77.17,166.96z"/>
		<path class="st49" d="M86.4,192.21c-0.07,0.01-0.13,0.01-0.2,0.02c-4.42,0.52-8.54-2.81-8.52-7.77l0-0.31l15.76,0.05l-0.01,0.47
			C93.42,188.68,90.38,191.73,86.4,192.21z"/>
		<path class="st73" d="M116.09,166.96c0,0-6.47,5.16-17.16,3.51l0.15,14.06c0.04,3.83,2.65,7.18,6.37,8.09
			c0.59,0.15,1.21,0.26,1.85,0.33c4.91,0.5,9.1-3.6,9.03-8.53L116.09,166.96z"/>
		<path class="st49" d="M106.86,192.21c0.07,0.01,0.13,0.01,0.2,0.02c4.42,0.52,8.54-2.81,8.52-7.77l0-0.31l-15.76,0.05l0.01,0.47
			C99.84,188.68,102.87,191.73,106.86,192.21z"/>
		<path class="st49" d="M117.83,157.5c0,0-0.38,2.92-0.11,3.86c0,0,2.49,1.63,4.15-0.74c0,0,1.22-1.65,1.58-3.51
			C123.46,157.11,119.94,156.93,117.83,157.5z"/>
		<path class="st49" d="M74.58,157.21c0,0,0.13,3.01-0.14,3.96c0,0-2.78,2.02-4.57-0.53c0,0-1.33-1.78-1.6-3.69
			C68.28,156.94,72.48,156.64,74.58,157.21z"/>
	</g>
	<g>
		<path class="st73" d="M136.72,102.74c-0.28,5.17-1.79,10.75-5.06,16.44c0,0-5.58,11.35-20.4,14.44c-0.65,0.13-1.33,0.19-1.99,0.19
			H81.19c-1.13,0-2.26-0.18-3.33-0.56c-2.93-1.04-9.08-3.56-14.46-8.02c-5.09-4.23-8.35-10.27-9.45-16.79
			c-0.58-3.4-0.91-7.63-0.32-12.08c0.16-1.24,0.4-2.51,0.72-3.78c1.03-4.06,2.93-8.15,6.22-11.85c3.8-4.29,8.9-7.19,14.42-8.71
			c7.92-2.18,23.02-5.01,38.9-0.95c6.02,1.55,11.52,4.77,15.59,9.46c2.49,2.86,4.68,6.71,5.99,11.24
			C136.46,95.1,136.94,98.8,136.72,102.74z"/>
		<g>
			<ellipse class="st26" cx="108.52" cy="98.63" rx="4.72" ry="7.17"/>
			<ellipse class="st26" cx="82.97" cy="98.63" rx="4.72" ry="7.17"/>
		</g>
		<g>
			<g>
				<ellipse class="st49" cx="114.14" cy="113.38" rx="4.67" ry="2.11"/>
				<ellipse class="st49" cx="77.34" cy="113.38" rx="4.67" ry="2.11"/>
			</g>
		</g>
		<path class="st81" d="M97.57,123.45c0,0-6.7,0.4-5.89-4.66c0.02-0.1,0.1-0.17,0.2-0.17h10.05
			C101.93,118.62,102.77,123.15,97.57,123.45z"/>
		<g>
			<path class="st49" d="M95.43,72.75l5.07-0.08c0.31,0,0.52,0.32,0.37,0.6l-3.68,7.25c-0.14,0.28,0.07,0.61,0.38,0.6l2.37-0.06
				c0.36-0.01,0.56,0.42,0.32,0.69l-8.53,9.5c-0.31,0.34-0.86,0-0.69-0.43l2.19-5.44c0.11-0.27-0.09-0.57-0.39-0.57l-1.74,0.03
				c-0.29,0-0.5-0.29-0.39-0.56l4.34-11.26C95.11,72.86,95.26,72.76,95.43,72.75z"/>
		</g>
	</g>
</g>
</svg>
